<svg width="637" height="637" viewBox="0 0 637 637" fill="none" xmlns="http://www.w3.org/2000/svg">
<path d="M171.366 246.697V256.252H180.921V246.697V237.155H171.366V246.697Z" fill="#EBEBEB"/>
<path d="M180.921 189.406H171.366V198.961H180.921V189.406Z" fill="#EBEBEB"/>
<path d="M239.932 294.549H230.377V304.104H239.932V294.549Z" fill="#EBEBEB"/>
<path d="M180.921 208.503V218.045H171.366V227.6H180.921V237.155H190.476H200.018V246.697H209.573V237.155H219.115V227.6V218.045H209.573V227.6H200.018H190.476V218.045V208.503V198.948H180.921V208.503Z" fill="#EBEBEB"/>
<path d="M200.018 189.406H190.476V198.948H200.018H209.573V189.406H200.018Z" fill="#EBEBEB"/>
<path d="M242.99 266.177H248.124V256.622H242.99H237.869V266.177H242.99Z" fill="#EBEBEB"/>
<path d="M219.128 198.948H209.573V208.503H219.128V198.948Z" fill="#EBEBEB"/>
<path d="M285.975 237.155H276.42V246.71H285.975V237.155Z" fill="#EBEBEB"/>
<path d="M295.53 132.101H285.975V141.656H295.53V132.101Z" fill="#EBEBEB"/>
<path d="M238.225 208.503V198.948H247.768V189.406H238.225V179.851H228.67V189.406H219.115V198.948H228.67V208.503V218.045V227.6V237.155H238.225V227.6V218.045H247.768V208.503H238.225Z" fill="#EBEBEB"/>
<path d="M285.975 304.002H295.517V294.447H285.975H276.42V304.002H285.975Z" fill="#EBEBEB"/>
<path d="M276.42 132.101H266.865V141.656H276.42V132.101Z" fill="#EBEBEB"/>
<path d="M274.037 208.503V198.948H264.482V189.406H254.927V198.948V208.503H245.385V218.045H254.927H264.482V208.503H274.037Z" fill="#EBEBEB"/>
<path d="M327.94 189.406H318.385V198.961H327.94V189.406Z" fill="#EBEBEB"/>
<path d="M228.951 237.155H219.396V246.71H228.951V237.155Z" fill="#EBEBEB"/>
<path d="M266.865 179.851V170.296H276.42V160.753H285.975H295.517V151.198H285.975V141.656H276.42V151.198H266.865V160.753H257.323V170.296H247.768V179.851H257.323H266.865Z" fill="#EBEBEB"/>
<path d="M266.865 246.697V237.155H276.42V227.6H266.865H257.323V237.155H247.768V246.697H257.323H266.865Z" fill="#EBEBEB"/>
<path d="M295.517 284.892V275.35H285.975H276.42V265.795H266.865V275.35H257.323V284.892H247.768H238.225V294.447H247.768H257.323H266.865V284.892H276.42V294.447H285.975V284.892H295.517Z" fill="#EBEBEB"/>
<path d="M257.323 141.656V132.101H247.768H238.225V141.656H228.67V151.198H238.225H247.768V141.656H257.323Z" fill="#EBEBEB"/>
<path d="M257.323 151.198H247.768V160.753H257.323V151.198Z" fill="#EBEBEB"/>
<path d="M281.197 189.406H271.642V198.948V208.503V218.045H281.197H290.752V208.503H281.197V198.948H290.752V189.406H300.295V179.851H290.752V170.296H281.197V179.851V189.406Z" fill="#EBEBEB"/>
<path d="M247.78 160.753H238.225V170.308H247.78V160.753Z" fill="#EBEBEB"/>
<path d="M276.42 256.252V265.795H285.975H295.517V256.252H305.072H314.627V246.697H305.072H295.517H285.975V256.252H276.42Z" fill="#EBEBEB"/>
<path d="M327.94 218.045H318.385V227.6H327.94V218.045Z" fill="#EBEBEB"/>
<path d="M295.53 227.6H285.975V237.155H295.53V227.6Z" fill="#EBEBEB"/>
<path d="M319.392 198.948H309.85H300.295V208.503H309.85V218.045H319.392V208.503V198.948Z" fill="#EBEBEB"/>
<path d="M314.627 227.6H305.072V237.155H314.627V227.6Z" fill="#EBEBEB"/>
<path d="M209.573 285.083H238.238V246.685H199.84V256.252H190.476V265.795H199.84V275.35H190.476V284.905H199.84V285.083H200.018V294.447H190.476V313.557H200.018V304.002H209.573V285.083ZM230.874 254.048V277.923H207V254.048H230.874Z" fill="#EBEBEB"/>
<path d="M333.724 246.697H343.267V237.155H333.724H324.169H314.627V246.697H324.169H333.724Z" fill="#EBEBEB"/>
<path d="M333.724 208.503H343.267V198.948V189.406H333.724V198.948V208.503Z" fill="#EBEBEB"/>
<path d="M257.679 256.622H248.124V266.177V275.719H257.679V266.177V256.622Z" fill="#EBEBEB"/>
<path d="M352.822 246.697H343.267V256.252H352.822V246.697Z" fill="#EBEBEB"/>
<path d="M352.822 227.6V218.045H343.267V227.6V237.155H352.822V227.6Z" fill="#EBEBEB"/>
<path d="M180.921 294.447H171.366V304.002V313.557H180.921V304.002V294.447Z" fill="#EBEBEB"/>
<path d="M352.822 179.851V132.101H305.072V179.851H352.822ZM312.232 172.691V139.261H345.662V172.691H312.232Z" fill="#EBEBEB"/>
<path d="M338.489 146.421H319.392V165.518H338.489V146.421Z" fill="#EBEBEB"/>
<path d="M352.822 265.795H305.072V313.557H352.822V265.795ZM312.232 306.384V272.967H345.662V306.384H312.232Z" fill="#EBEBEB"/>
<path d="M338.489 280.127H319.392V299.224H338.489V280.127Z" fill="#EBEBEB"/>
<path d="M171.251 132.101V179.851H219.001V132.101H171.251ZM211.841 139.261V172.691H178.36V139.261H211.841Z" fill="#EBEBEB"/>
<path d="M204.668 146.421H185.571V165.518H204.668V146.421Z" fill="#EBEBEB"/>
<path d="M94.9099 320.218C95.5256 317.798 94.0623 315.336 91.6416 314.72C89.2208 314.105 86.7593 315.568 86.1436 317.989C85.5279 320.41 86.9912 322.871 89.412 323.487C91.8327 324.102 94.2942 322.639 94.9099 320.218Z" fill="#EBEBEB"/>
<path d="M81.536 313.328C82.69 312.087 84.0837 311.092 85.6328 310.405C87.1819 309.718 88.8542 309.352 90.5487 309.33C92.2432 309.307 93.9247 309.628 95.4916 310.274C97.0585 310.919 98.4782 311.876 99.665 313.086C101.971 315.417 105.576 311.812 103.27 309.506C101.61 307.829 99.6315 306.501 97.4502 305.602C95.269 304.702 92.9297 304.248 90.5702 304.267C88.2108 304.286 85.8791 304.778 83.7126 305.712C81.5461 306.647 79.5888 308.006 77.956 309.709C75.7011 312.079 79.23 315.697 81.536 313.328Z" fill="#EBEBEB"/>
<path d="M66.1461 292.281C73.0129 286.344 81.2175 282.599 90.3521 282.573C99.5094 282.465 108.363 285.855 115.106 292.052C117.488 294.294 121.106 290.714 118.724 288.472C111.034 281.359 100.929 277.433 90.454 277.49C79.8798 277.49 70.4777 281.834 62.5789 288.676C60.0309 290.816 63.6873 294.409 66.1588 292.281H66.1461Z" fill="#EBEBEB"/>
<path d="M72.1976 303.938C74.491 301.383 77.2886 299.33 80.4141 297.909C83.5396 296.487 86.9256 295.728 90.3588 295.679C93.792 295.63 97.1983 296.292 100.363 297.623C103.528 298.955 106.383 300.927 108.749 303.416C111.042 305.773 114.647 302.142 112.367 299.849C109.532 296.884 106.118 294.533 102.337 292.942C98.5564 291.35 94.489 290.553 90.3872 290.598C86.2853 290.643 82.2365 291.531 78.4918 293.205C74.7471 294.88 71.3862 297.306 68.6176 300.333C66.4009 302.728 69.9681 306.346 72.1976 303.938Z" fill="#EBEBEB"/>
<path d="M290.599 71.8918C291.364 66.3117 283.478 61.6998 277.554 61.2285C274.725 60.9991 271.795 61.4323 269.12 60.5023C263.31 58.4766 260.992 50.9855 255.335 48.6031C251.105 46.8195 246.226 48.3993 242.124 50.4632C238.021 52.527 233.97 55.126 229.384 55.419C225.396 55.6738 221.065 54.145 217.574 56.1452C215.026 57.5976 213.612 60.5915 211.204 62.3623C208.796 64.1332 205.802 64.4644 202.897 64.6173C199.993 64.7702 196.973 64.8084 194.336 66.0187C191.699 67.229 189.495 70.0318 190.043 72.8856L290.599 71.8918Z" fill="#EBEBEB"/>
<path d="M138.407 166.321C139.095 161.314 132.037 157.186 126.712 156.766C124.164 156.562 121.616 156.944 119.144 156.103C113.947 154.294 111.87 147.58 106.799 145.44C102.977 143.835 98.6331 145.262 94.964 147.109C91.2949 148.956 87.6512 151.288 83.498 151.555C79.918 151.784 76.0451 150.459 72.911 152.205C70.5796 153.479 69.3693 156.192 67.2162 157.772C65.0632 159.352 62.3751 159.645 59.7634 159.798C57.1585 159.747 54.5668 160.179 52.1194 161.072C49.7497 162.155 47.7878 164.677 48.2974 167.238L138.407 166.321Z" fill="#F5F5F5"/>
<path d="M615.826 162.779C616.565 157.415 608.997 152.995 603.303 152.587C600.589 152.37 597.774 152.791 595.2 151.886C589.633 149.95 587.403 142.752 581.976 140.42C577.912 138.713 573.236 140.229 569.3 142.217C565.363 144.204 561.465 146.688 557.069 146.981C553.247 147.223 549.081 145.797 545.731 147.669C543.183 149.058 541.909 151.937 539.628 153.632C537.348 155.326 534.443 155.645 531.653 155.797C528.863 155.95 525.971 155.976 523.436 157.148C520.9 158.32 518.786 160.97 519.321 163.735L615.826 162.779Z" fill="#F5F5F5"/>
<path d="M604.462 607.774C604.462 607.953 476.425 608.106 318.513 608.106C160.6 608.106 32.538 607.953 32.538 607.774C32.538 607.596 160.524 607.443 318.5 607.443C476.476 607.443 604.462 607.583 604.462 607.774Z" fill="#263238"/>
<path d="M535.972 551.731C537.228 552.332 538.35 553.18 539.272 554.224C540.193 555.268 540.895 556.487 541.335 557.808C542.202 560.465 542.446 563.285 542.049 566.051C541.45 571.402 538.405 576.804 535.131 581.071C530.634 577.147 529.589 570.281 529.283 566.777C528.799 561.222 531.296 550.903 535.972 551.731Z" fill="#023047"/>
<path d="M540.367 589.862C540.067 588.333 540.172 586.753 540.673 585.277C541.174 583.802 542.052 582.484 543.221 581.454C544.414 580.452 545.794 579.697 547.281 579.234C548.769 578.77 550.333 578.607 551.884 578.753C552.607 578.739 553.325 578.884 553.986 579.179C554.646 579.474 555.234 579.912 555.706 580.46C556.041 581.041 556.218 581.7 556.218 582.371C556.218 583.042 556.041 583.701 555.706 584.282C555.022 585.447 554.042 586.409 552.865 587.072C548.967 589.518 544.737 591.174 540.329 589.849" fill="#023047"/>
<path d="M534.596 606.297C534.62 605.928 534.671 605.562 534.749 605.201C534.902 604.424 535.08 603.43 535.297 602.233C535.798 598.923 536.835 595.717 538.367 592.741C539.953 589.769 542.301 587.271 545.17 585.505C546.042 584.972 546.975 584.544 547.947 584.231C548.21 584.146 548.479 584.078 548.75 584.027C548.843 584.01 548.938 584.01 549.03 584.027C547.736 584.47 546.49 585.042 545.31 585.734C542.532 587.53 540.257 590.002 538.698 592.92C537.201 595.866 536.145 599.017 535.564 602.271C535.297 603.545 535.08 604.526 534.902 605.214C534.84 605.585 534.737 605.948 534.596 606.297Z" fill="#263238"/>
<path d="M534.762 559.757C534.783 559.918 534.783 560.081 534.762 560.241C534.762 560.598 534.762 561.044 534.851 561.617C534.914 562.815 534.978 564.548 535.055 566.713C535.195 570.994 535.297 576.905 535.271 583.466C535.246 590.028 535.08 595.939 534.902 600.22C534.825 602.36 534.736 604.042 534.66 605.316C534.66 605.876 534.66 606.335 534.57 606.691C534.568 606.855 534.547 607.017 534.507 607.176C534.487 607.015 534.487 606.852 534.507 606.691C534.507 606.335 534.507 605.876 534.507 605.303C534.507 604.029 534.583 602.334 534.634 600.207C534.736 595.926 534.851 590.015 534.876 583.466C534.902 576.918 534.876 571.007 534.774 566.726C534.774 564.611 534.711 562.904 534.698 561.63C534.698 561.07 534.698 560.611 534.698 560.254C534.698 560.087 534.72 559.92 534.762 559.757Z" fill="#263238"/>
<path d="M532.532 593.162C531.987 589.919 530.678 586.853 528.713 584.217C526.748 581.581 524.183 579.45 521.232 578.001C519.728 577.288 517.766 576.816 516.518 577.937C515.269 579.058 515.562 581.059 516.174 582.626C517.504 585.871 519.77 588.647 522.683 590.601C525.596 592.554 529.025 593.596 532.532 593.595" fill="#023047"/>
<path d="M522.009 583.072C522.341 583.179 522.661 583.32 522.964 583.492C523.337 583.659 523.699 583.851 524.047 584.065C524.521 584.33 524.98 584.619 525.423 584.932C525.969 585.295 526.492 585.691 526.99 586.116C527.579 586.589 528.141 587.096 528.672 587.633C529.882 588.87 530.947 590.242 531.844 591.722C532.728 593.214 533.433 594.805 533.946 596.461C534.338 597.819 534.606 599.209 534.749 600.615C534.825 601.213 534.749 601.761 534.825 602.233C534.848 602.657 534.848 603.082 534.825 603.507C534.819 603.853 534.781 604.199 534.711 604.539C534.621 604.539 534.774 603.061 534.507 600.717C534.43 600.13 534.354 599.443 534.201 598.793C534.048 598.143 533.857 597.391 533.64 596.64C533.12 595.021 532.419 593.465 531.551 592.002C530.668 590.548 529.63 589.194 528.455 587.964C527.938 587.427 527.393 586.917 526.824 586.435C526.338 586.007 525.828 585.607 525.296 585.237C523.334 583.772 521.971 583.148 522.009 583.072Z" fill="#263238"/>
<path d="M193.724 607.787C193.349 606.598 193.055 605.385 192.845 604.156C191.527 598.339 189.557 592.689 186.972 587.314C186.381 586.216 185.853 585.084 185.392 583.925C186.177 584.901 186.844 585.966 187.38 587.097C190.233 592.426 192.232 598.17 193.304 604.118C193.575 605.323 193.716 606.553 193.724 607.787Z" fill="#263238"/>
<path d="M205.025 552.648C204.969 553.377 204.863 554.101 204.706 554.814C204.452 556.19 204.108 558.19 203.713 560.662C202.897 565.618 201.954 572.472 201.368 580.09C200.782 587.709 200.68 594.652 200.719 599.659C200.719 602.207 200.719 604.194 200.821 605.596C200.876 606.321 200.876 607.049 200.821 607.774C200.68 607.06 200.599 606.336 200.579 605.609C200.464 604.207 200.349 602.182 200.273 599.672C200.066 593.124 200.214 586.571 200.719 580.039C201.221 573.514 202.071 567.02 203.267 560.585C203.738 558.114 204.146 556.126 204.477 554.763C204.606 554.045 204.789 553.339 205.025 552.648Z" fill="#263238"/>
<path d="M223.167 584.384C222.511 585.452 221.801 586.485 221.039 587.48C219.36 589.968 217.902 592.598 216.682 595.34C215.486 598.094 214.544 600.951 213.866 603.876C213.646 605.109 213.361 606.329 213.013 607.532C212.991 606.268 213.124 605.006 213.408 603.774C214.524 597.771 217.004 592.105 220.657 587.212C221.367 586.165 222.211 585.214 223.167 584.384Z" fill="#263238"/>
<path d="M445.276 588.588C445.933 589.37 446.497 590.225 446.957 591.136C447.9 592.754 449.123 595.047 450.334 597.633C451.544 600.22 452.512 602.653 453.149 604.411C453.558 605.344 453.849 606.324 454.015 607.329C453.503 606.459 453.076 605.542 452.741 604.589C452.002 602.87 450.971 600.5 449.76 597.914C448.55 595.327 447.403 593.022 446.562 591.353C446.034 590.481 445.603 589.554 445.276 588.588Z" fill="#263238"/>
<path d="M468.717 565.325C468.661 565.886 468.55 566.441 468.386 566.981C468.119 568.166 467.775 569.656 467.354 571.44C466.513 575.262 465.481 580.434 464.704 586.269C463.927 592.104 463.57 597.442 463.43 601.29C463.367 603.124 463.316 604.653 463.277 605.863C463.296 606.427 463.254 606.991 463.15 607.545C463.053 606.99 463.006 606.427 463.01 605.863C463.01 604.78 462.946 603.213 463.01 601.277C463.087 596.232 463.458 591.195 464.118 586.193C464.778 581.185 465.731 576.221 466.972 571.325C467.456 569.452 467.889 567.949 468.246 566.917C468.342 566.37 468.5 565.836 468.717 565.325Z" fill="#263238"/>
<path d="M299.135 575.695C299.561 575.938 299.951 576.238 300.295 576.587C301.299 577.452 302.256 578.37 303.161 579.339C309.193 585.748 313.456 593.616 315.532 602.169C315.857 603.456 316.104 604.763 316.27 606.08C316.368 606.558 316.41 607.045 316.398 607.532C316.283 607.532 315.965 605.494 315.124 602.296C312.803 593.914 308.593 586.174 302.817 579.67C300.664 577.122 299.059 575.848 299.135 575.695Z" fill="#263238"/>
<path d="M321.214 562.14C321.268 562.742 321.268 563.347 321.214 563.949C321.214 565.223 321.214 566.892 321.214 568.866C321.214 573.02 321.379 578.753 321.927 585.072C322.475 591.391 323.316 597.06 324.029 601.15C324.373 603.099 324.666 604.73 324.895 605.991C325.04 606.58 325.125 607.181 325.15 607.787C324.935 607.22 324.765 606.636 324.641 606.042C324.348 604.921 323.978 603.277 323.571 601.239C321.443 590.585 320.494 579.728 320.742 568.866C320.742 566.777 320.87 565.044 320.972 563.936C320.992 563.331 321.073 562.729 321.214 562.14Z" fill="#263238"/>
<path d="M340.706 589.149C340.897 589.25 338.706 593.072 337.202 598.245C335.699 603.417 335.419 607.8 335.215 607.787C335.071 606.829 335.071 605.854 335.215 604.895C335.416 602.579 335.842 600.287 336.489 598.054C337.132 595.825 337.985 593.662 339.037 591.595C339.478 590.706 340.039 589.883 340.706 589.149Z" fill="#263238"/>
<path d="M80.1601 486.566H65.369V603.991H80.1601V486.566Z" fill="#455A64"/>
<path d="M80.1728 603.978C80.1728 603.978 80.1728 603.774 80.1728 603.366V601.608C80.1728 600.041 80.1728 597.786 80.1728 594.856C80.1728 588.983 80.1728 580.498 80.0709 569.962C80.0709 548.877 79.9817 519.575 79.9308 486.566L80.262 486.897H65.369L65.7002 486.566C65.6238 537.998 65.5601 582.537 65.5218 603.978L65.369 603.838L76.3381 603.914H79.1919H80.1728C80.1728 603.914 79.8671 603.914 79.2428 603.914H76.4273L65.369 603.991H65.2288V603.838C65.2288 582.396 65.1269 537.857 65.0377 486.426L65.369 486.095H80.5041V486.426C80.5041 519.55 80.3894 548.916 80.3639 570.064C80.3639 580.562 80.2875 589.021 80.262 594.882C80.262 597.761 80.262 599.978 80.262 601.557V603.277C80.1856 603.8 80.1728 603.978 80.1728 603.978Z" fill="#263238"/>
<g opacity="0.3">
<path d="M80.1601 489.42H65.369V494.312H80.1601V489.42Z" fill="black"/>
</g>
<path d="M394.851 486.566H380.06V603.991H394.851V486.566Z" fill="#455A64"/>
<path d="M394.851 603.978C394.851 603.978 394.851 603.774 394.851 603.366V601.608C394.851 600.041 394.851 597.786 394.851 594.856C394.851 588.983 394.851 580.498 394.749 569.962C394.749 548.877 394.672 519.575 394.609 486.566L394.94 486.897H380.06L380.391 486.566C380.302 537.998 380.238 582.537 380.2 603.978L380.06 603.838L391.029 603.914H393.87H394.851C394.851 603.914 394.545 603.914 393.921 603.914H391.118L380.06 603.991H379.907V603.838C379.907 582.396 379.805 537.857 379.728 486.426L380.06 486.095H395.182V486.426C395.182 519.55 395.08 548.916 395.042 570.064C395.042 580.562 394.965 589.021 394.94 594.882C394.94 597.761 394.94 599.978 394.94 601.557V603.277C394.864 603.8 394.851 603.978 394.851 603.978Z" fill="#263238"/>
<path d="M371.664 383.703H356.873V481.585H371.664V383.703Z" fill="#455A64"/>
<path d="M371.677 481.572C371.658 481.398 371.658 481.223 371.677 481.05V479.585C371.677 478.311 371.677 476.387 371.677 473.979C371.677 469.074 371.613 462.029 371.575 453.251C371.575 435.695 371.486 411.285 371.435 383.691L371.766 384.022H356.886C357.535 383.359 357.064 383.856 357.204 383.716V399.246C357.204 404.342 357.204 409.298 357.204 414.139C357.204 423.822 357.204 432.969 357.204 441.39C357.14 458.207 357.102 472.106 357.077 481.572L356.911 481.406L367.855 481.496H370.721H371.715H370.772H367.957L356.911 481.585H356.72V481.572C356.72 472.106 356.656 458.207 356.605 441.39C356.605 432.969 356.605 423.822 356.605 414.139C356.605 409.298 356.605 404.334 356.605 399.246V383.729C356.758 383.576 356.274 384.035 356.949 383.372H372.008V383.703C372.008 411.387 371.906 435.937 371.868 453.506C371.868 462.245 371.791 469.265 371.779 474.145C371.779 476.527 371.779 478.387 371.779 479.686C371.779 480.285 371.779 480.769 371.779 481.113C371.779 481.457 371.677 481.572 371.677 481.572Z" fill="#263238"/>
<path d="M108.481 383.703H93.69V481.585H108.481V383.703Z" fill="#455A64"/>
<path d="M108.494 481.572C108.483 481.398 108.483 481.224 108.494 481.05C108.494 480.693 108.494 480.209 108.494 479.585C108.494 478.311 108.494 476.387 108.494 473.979C108.494 469.074 108.494 462.029 108.392 453.251C108.392 435.695 108.303 411.285 108.252 383.691L108.583 384.022H93.7027C94.3524 383.359 93.8811 383.856 94.0212 383.716V399.246C94.0212 404.342 94.0212 409.307 94.0212 414.139C94.0212 423.822 94.0212 432.969 94.0212 441.39C94.0212 458.207 93.9193 472.106 93.8938 481.572L93.7282 481.406L104.672 481.496H107.538H108.532H107.589H104.774L93.7282 481.585H93.5753V481.572C93.5753 472.106 93.4989 458.207 93.4479 441.39C93.4479 432.969 93.4479 423.822 93.4479 414.139C93.4479 409.298 93.4479 404.334 93.4479 399.246V383.729C93.6008 383.576 93.1167 384.035 93.7919 383.372H108.825V383.703C108.825 411.387 108.71 435.937 108.672 453.506C108.672 462.245 108.672 469.265 108.583 474.145C108.583 476.527 108.583 478.387 108.583 479.686C108.583 480.285 108.583 480.769 108.583 481.113C108.583 481.457 108.494 481.572 108.494 481.572Z" fill="#263238"/>
<path d="M400.214 372.53H64.5026V388.201H400.214V372.53Z" fill="#455A64"/>
<path d="M400.214 388.201C400.214 388.201 400.214 387.882 400.214 387.245C400.214 386.608 400.214 385.653 400.214 384.366C400.214 381.818 400.214 377.881 400.214 372.53L400.304 372.632L64.6045 372.862L64.9358 372.53V388.201L64.6045 387.869L302.46 388.009L374.072 388.111H393.513H398.609H400.342H398.647H393.628H374.276L302.741 388.213L64.5026 388.57H64.1714V372.199H64.5154L400.214 372.441H400.316V372.53C400.316 377.907 400.316 381.831 400.316 384.417C400.316 385.691 400.316 386.646 400.316 387.283C400.316 387.92 400.214 388.201 400.214 388.201Z" fill="#263238"/>
<path d="M401.081 396.036H65.369V411.706H401.081V396.036Z" fill="#455A64"/>
<path d="M401.081 411.706C401.081 411.706 401.081 411.387 401.081 410.75C401.081 410.113 401.081 409.158 401.081 407.871C401.081 405.323 401.081 401.386 401.081 396.036L401.17 396.125L65.4836 396.367L65.8149 396.036V411.706L65.4836 411.375L303.212 411.502L374.824 411.591H394.265H399.361H401.093H399.412H394.392H375.027L303.492 411.693L65.3817 411.833H65.0505V395.704H65.4072L401.093 395.947H401.195V396.036C401.195 401.412 401.195 405.336 401.195 407.922C401.195 409.196 401.195 410.139 401.195 410.776C401.195 411.413 401.081 411.706 401.081 411.706Z" fill="#263238"/>
<path d="M401.081 420.407H65.369V436.077H401.081V420.407Z" fill="#455A64"/>
<path d="M401.081 436.077C401.081 436.077 401.081 435.759 401.081 435.122C401.081 434.485 401.081 433.529 401.081 432.243C401.081 429.695 401.081 425.758 401.081 420.407L401.17 420.496L65.4836 420.739L65.8149 420.407V436.077L65.4836 435.746L303.352 435.886L374.964 435.988H394.405H399.501H401.234H399.552H394.532H375.168L303.632 436.09L65.5219 436.23H65.1906V420.076H65.5473L401.234 420.318H401.335V420.42C401.335 425.796 401.335 429.72 401.335 432.306C401.335 433.58 401.335 434.523 401.335 435.173C401.335 435.823 401.081 436.077 401.081 436.077Z" fill="#263238"/>
<path d="M401.081 444.779H65.369V460.449H401.081V444.779Z" fill="#455A64"/>
<path d="M401.081 460.449C401.081 460.449 401.081 460.131 401.081 459.494C401.081 458.857 401.081 457.901 401.081 456.614C401.081 454.066 401.081 450.13 401.081 444.779L401.17 444.881L65.4836 445.11L65.8149 444.779V460.449L65.4836 460.118L303.352 460.258L374.964 460.36H394.405H399.501H401.234H399.552H394.532H375.168L303.632 460.462L65.5219 460.602H65.1906V444.448H65.5473L401.234 444.69H401.335V444.779C401.335 450.155 401.335 454.079 401.335 456.665C401.335 457.939 401.335 458.895 401.335 459.532C401.335 460.169 401.081 460.449 401.081 460.449Z" fill="#263238"/>
<path d="M407.196 473.75H50.7944V489.42H407.196V473.75Z" fill="#455A64"/>
<path d="M407.196 489.42C407.196 489.42 407.196 489.101 407.196 488.464C407.196 487.827 407.196 486.872 407.196 485.585C407.196 483.037 407.196 479.1 407.196 473.75L407.298 473.839L50.9091 474.081L51.2403 473.75V489.42L50.9091 489.089L303.39 489.216L379.435 489.318H400.087H405.463C406.674 489.318 407.311 489.318 407.311 489.318H405.501H400.036H379.461L303.505 489.42L50.7689 489.56H50.4377V473.418H50.7817L407.17 473.661H407.26V473.75C407.26 479.126 407.26 483.05 407.26 485.636C407.26 486.91 407.26 487.853 407.26 488.49C407.26 489.127 407.196 489.42 407.196 489.42Z" fill="#263238"/>
<g opacity="0.3">
<path d="M394.851 489.42H380.06V494.312H394.851V489.42Z" fill="black"/>
</g>
<path d="M214.427 293.428L211.229 314.054L202.999 332.833L190.807 325.048L186.463 314.092L182.832 304.894C182.832 304.894 169.952 308.002 164.817 295.976C162.346 290.166 158.218 277.783 154.625 266.521C152.76 260.676 153.166 254.342 155.764 248.784C158.361 243.225 162.959 238.85 168.639 236.531L169.799 236.047C182.704 231.6 193.686 240.073 197.763 253.08L214.503 293.453" fill="#A2675F"/>
<path d="M182.819 304.894C188.449 302.699 193.298 298.876 196.744 293.912C196.744 293.912 196.604 304.167 184.08 308.04L182.819 304.894Z" fill="#7A4A45"/>
<path d="M162.486 275.732C162.665 276.185 163.015 276.55 163.461 276.748C163.907 276.945 164.412 276.96 164.868 276.789C165.095 276.716 165.305 276.598 165.486 276.442C165.667 276.287 165.814 276.096 165.92 275.882C166.026 275.668 166.087 275.436 166.101 275.198C166.116 274.959 166.082 274.721 166.002 274.496C165.823 274.043 165.473 273.678 165.027 273.48C164.582 273.283 164.076 273.268 163.62 273.439C163.393 273.512 163.183 273.63 163.002 273.786C162.822 273.941 162.674 274.132 162.568 274.346C162.463 274.559 162.401 274.792 162.387 275.03C162.373 275.269 162.406 275.507 162.486 275.732Z" fill="#263238"/>
<path d="M159.25 270.776C159.556 270.916 160.524 269.413 162.333 268.648C164.142 267.884 165.939 268.254 166.04 267.948C166.142 267.642 165.709 267.489 164.945 267.298C163.896 267.052 162.797 267.137 161.798 267.54C160.83 267.939 160.014 268.635 159.467 269.527C159.084 270.228 159.059 270.725 159.25 270.776Z" fill="#263238"/>
<path d="M178.704 268.496C178.883 268.949 179.233 269.314 179.679 269.511C180.125 269.709 180.63 269.724 181.086 269.553C181.315 269.481 181.526 269.364 181.708 269.209C181.89 269.054 182.039 268.863 182.146 268.649C182.253 268.435 182.316 268.202 182.331 267.963C182.346 267.725 182.312 267.485 182.233 267.26C182.051 266.809 181.701 266.446 181.256 266.249C180.811 266.051 180.307 266.035 179.851 266.202C179.622 266.274 179.411 266.391 179.229 266.546C179.047 266.702 178.898 266.892 178.791 267.106C178.684 267.32 178.621 267.553 178.606 267.792C178.591 268.031 178.625 268.27 178.704 268.496Z" fill="#263238"/>
<path d="M177.532 262.635C177.825 262.801 178.895 261.361 180.819 260.839C182.743 260.316 184.45 260.839 184.641 260.546C184.832 260.253 184.373 260.062 183.622 259.781C182.609 259.468 181.526 259.468 180.513 259.781C179.504 260.072 178.612 260.674 177.965 261.501C177.468 262.075 177.392 262.559 177.532 262.635Z" fill="#263238"/>
<path d="M176.997 280.739C175.892 280.832 174.805 281.067 173.761 281.439C173.264 281.58 172.78 281.669 172.563 281.439C172.317 280.97 172.224 280.436 172.296 279.911C172.296 278.577 172.27 277.176 172.219 275.706C172.041 269.757 171.71 264.941 171.48 264.954C171.251 264.967 171.175 269.795 171.353 275.745C171.353 277.21 171.455 278.598 171.493 279.936C171.436 280.631 171.62 281.324 172.016 281.898C172.152 282.04 172.32 282.149 172.506 282.215C172.691 282.281 172.89 282.304 173.086 282.28C173.379 282.241 173.666 282.164 173.939 282.051C175.008 281.74 176.035 281.299 176.997 280.739Z" fill="#263238"/>
<path d="M173.965 254.711C174.36 255.144 176.118 254.138 178.411 253.437C180.704 252.736 182.717 252.672 182.819 252.163C182.819 251.895 182.348 251.539 181.443 251.347C180.246 251.137 179.018 251.203 177.85 251.538C176.682 251.874 175.606 252.471 174.704 253.284C174.028 253.934 173.786 254.507 173.965 254.711Z" fill="#263238"/>
<path d="M156.549 263.463C157.059 263.743 158.154 262.788 159.683 262.126C161.212 261.463 162.652 261.246 162.766 260.673C162.766 260.406 162.435 260.074 161.696 259.909C160.735 259.721 159.74 259.846 158.855 260.265C157.953 260.651 157.196 261.311 156.689 262.151C156.32 262.801 156.32 263.31 156.549 263.463Z" fill="#263238"/>
<path d="M200.387 262.444C200.566 262.278 207.7 256.571 210.834 264.992C213.968 273.413 204.91 274.802 204.808 274.56C204.706 274.318 200.387 262.444 200.387 262.444Z" fill="#A2675F"/>
<path d="M206.184 270.368C206.184 270.368 206.363 270.368 206.656 270.432C207.055 270.444 207.446 270.308 207.751 270.05C208.159 269.51 208.416 268.872 208.497 268.201C208.577 267.529 208.478 266.848 208.21 266.228C207.962 265.5 207.552 264.838 207.012 264.291C206.838 264.057 206.609 263.868 206.344 263.744C206.079 263.619 205.788 263.562 205.496 263.578C205.311 263.595 205.137 263.678 205.007 263.811C204.876 263.944 204.797 264.118 204.783 264.304C204.783 264.584 204.872 264.725 204.783 264.763C204.694 264.801 204.553 264.686 204.49 264.317C204.461 264.091 204.51 263.861 204.63 263.667C204.793 263.404 205.055 263.216 205.356 263.145C205.726 263.086 206.104 263.122 206.456 263.249C206.808 263.376 207.122 263.59 207.369 263.871C207.993 264.469 208.465 265.207 208.745 266.024C209.331 267.731 209.051 269.642 207.968 270.445C207.768 270.593 207.537 270.696 207.292 270.744C207.048 270.793 206.795 270.786 206.554 270.725C206.273 270.559 206.159 270.394 206.184 270.368Z" fill="#7A4A45"/>
<path d="M147.466 252.927C147.269 252.057 147.333 251.148 147.65 250.314C147.967 249.48 148.524 248.758 149.249 248.239C148.58 247.603 148.148 246.757 148.023 245.842C147.899 244.927 148.09 243.997 148.564 243.205C149.039 242.413 149.769 241.807 150.635 241.485C151.5 241.163 152.449 241.146 153.326 241.436C153.097 240.811 153.021 240.142 153.102 239.482C153.183 238.822 153.42 238.191 153.794 237.641C154.167 237.091 154.666 236.637 155.249 236.318C155.832 235.999 156.483 235.823 157.148 235.805C156.801 235.085 156.709 234.268 156.886 233.489C157.064 232.71 157.501 232.014 158.125 231.515C158.749 231.017 159.525 230.745 160.324 230.744C161.123 230.743 161.899 231.014 162.524 231.511C162.709 230.617 163.092 229.776 163.646 229.05C164.199 228.323 164.909 227.731 165.723 227.316C166.536 226.902 167.432 226.675 168.345 226.654C169.258 226.632 170.164 226.816 170.996 227.192C172.447 225.965 174.298 225.313 176.198 225.36C178.098 225.407 179.914 226.15 181.303 227.447C182.699 226.987 184.199 226.953 185.615 227.347C187.03 227.742 188.296 228.548 189.253 229.664C190.155 229.375 191.118 229.329 192.043 229.531C192.969 229.733 193.825 230.175 194.525 230.814C195.226 231.452 195.745 232.264 196.032 233.167C196.318 234.07 196.362 235.032 196.158 235.958C196.769 236.039 197.353 236.26 197.865 236.603C198.377 236.947 198.803 237.404 199.11 237.939C199.417 238.473 199.596 239.072 199.634 239.687C199.672 240.302 199.568 240.918 199.33 241.487C200.067 241.545 200.772 241.811 201.365 242.253C201.958 242.695 202.413 243.295 202.68 243.985C202.946 244.675 203.012 245.426 202.87 246.151C202.728 246.877 202.384 247.547 201.878 248.086C203.152 247.729 204.311 249.143 204.426 250.468C204.368 251.791 204.241 253.109 204.044 254.418C204.044 255.513 204.337 256.584 204.388 257.679C204.429 258.708 204.245 259.734 203.849 260.684C203.452 261.635 202.854 262.487 202.095 263.183L202.413 263.349C203.063 264.317 201.891 265.655 200.719 265.642C199.554 265.473 198.466 264.958 197.597 264.164C196.449 263.478 195.413 262.618 194.527 261.616C194.094 261.102 193.84 260.461 193.803 259.79C193.766 259.119 193.949 258.454 194.323 257.896C193.507 257.894 192.705 257.677 191.999 257.268C191.292 256.859 190.706 256.271 190.297 255.564C189.493 254.145 188.953 252.591 188.705 250.978L187.176 243.933C185.649 244.498 183.996 244.634 182.397 244.326C180.798 244.018 179.314 243.279 178.105 242.187C177.714 242.797 177.197 243.316 176.589 243.71C175.982 244.104 175.297 244.364 174.581 244.472C173.865 244.581 173.134 244.535 172.436 244.339C171.739 244.143 171.092 243.8 170.538 243.334C170.609 245.02 170.037 246.67 168.937 247.95C167.837 249.23 166.291 250.044 164.614 250.226C165.646 251.806 163.225 254.66 161.722 255.806C160.485 256.521 159.049 256.812 157.632 256.635C157.632 256.635 155.441 259.539 153.593 259.565C151.746 259.59 148.854 258.444 149.211 256.393C148.364 255.391 147.766 254.204 147.466 252.927Z" fill="#263238"/>
<path d="M199.763 241.283C199.743 241.777 199.612 242.26 199.381 242.697C199.244 242.918 199.058 243.105 198.837 243.242C198.616 243.379 198.366 243.463 198.107 243.487C197.79 243.524 197.469 243.476 197.177 243.346C196.886 243.215 196.635 243.009 196.451 242.748L196.145 242.289L195.903 242.786C195.692 243.167 195.384 243.486 195.011 243.709C194.637 243.933 194.211 244.054 193.775 244.06C193.284 244.038 192.811 243.866 192.419 243.568C192.028 243.27 191.736 242.859 191.584 242.391L191.444 241.882L191.075 242.251C190.853 242.469 190.59 242.641 190.301 242.757C190.013 242.873 189.704 242.93 189.393 242.926C188.891 242.924 188.404 242.758 188.004 242.455C187.316 241.933 187.163 241.385 187.087 241.41C187.011 241.436 187.087 242.047 187.762 242.684C188.201 243.098 188.767 243.349 189.367 243.398C189.756 243.424 190.147 243.371 190.515 243.242C190.883 243.112 191.22 242.91 191.508 242.646L190.985 242.506C191.141 243.088 191.472 243.608 191.934 243.995C192.396 244.382 192.965 244.617 193.565 244.668C194.166 244.72 194.767 244.585 195.288 244.283C195.809 243.98 196.224 243.524 196.476 242.977H195.929C196.182 243.324 196.528 243.594 196.926 243.756C197.324 243.918 197.76 243.966 198.183 243.895C198.506 243.835 198.811 243.701 199.074 243.504C199.337 243.308 199.551 243.053 199.7 242.761C200.184 241.882 199.801 241.232 199.763 241.283Z" fill="#455A64"/>
<path d="M204.273 248.698C204.209 248.698 204.082 249.054 203.534 249.411C203.175 249.659 202.748 249.792 202.311 249.792C201.874 249.792 201.448 249.659 201.088 249.411L200.808 249.182L200.681 249.526C200.522 249.909 200.268 250.245 199.942 250.501C199.616 250.758 199.23 250.926 198.82 250.991C198.347 251.042 197.868 250.947 197.449 250.72C197.031 250.492 196.691 250.142 196.476 249.717L196.222 249.182L195.89 249.666C195.805 249.791 195.702 249.902 195.585 249.997C195.32 250.216 194.994 250.346 194.651 250.372C194.309 250.397 193.967 250.315 193.674 250.137C193.414 249.958 193.207 249.712 193.077 249.425C192.947 249.137 192.898 248.82 192.935 248.506L193.024 247.869L192.476 248.201C191.847 248.574 191.098 248.688 190.387 248.519C189.82 248.393 189.309 248.084 188.934 247.64C188.617 247.219 188.352 246.762 188.144 246.277C188.114 246.563 188.144 246.853 188.232 247.127C188.32 247.401 188.463 247.654 188.654 247.869C189.042 248.416 189.603 248.816 190.246 249.003C190.668 249.13 191.111 249.171 191.549 249.123C191.987 249.075 192.41 248.939 192.794 248.723L192.374 248.43C192.31 248.86 192.368 249.3 192.541 249.698C192.714 250.097 192.997 250.439 193.355 250.685C193.76 250.95 194.239 251.079 194.722 251.054C195.205 251.029 195.668 250.85 196.043 250.545C196.211 250.403 196.361 250.24 196.489 250.061H195.903C196.143 250.58 196.533 251.016 197.022 251.312C197.512 251.608 198.078 251.751 198.65 251.722C199.221 251.693 199.771 251.494 200.228 251.151C200.685 250.807 201.029 250.334 201.216 249.793L200.808 249.908C201.055 250.088 201.336 250.215 201.634 250.283C201.932 250.351 202.24 250.358 202.541 250.303C203.01 250.251 203.454 250.06 203.815 249.755C204.273 249.156 204.311 248.698 204.273 248.698Z" fill="#455A64"/>
<path d="M158.167 235.117C158.347 234.77 158.589 234.459 158.881 234.199C159.079 234.034 159.309 233.912 159.557 233.84C159.805 233.768 160.066 233.748 160.322 233.782C160.578 233.815 160.824 233.901 161.045 234.035C161.266 234.168 161.458 234.345 161.607 234.556L161.913 234.977L161.989 234.454C162.079 233.908 162.307 233.394 162.65 232.959C162.993 232.525 163.441 232.184 163.951 231.97C164.574 231.729 165.257 231.692 165.903 231.863C166.548 232.035 167.123 232.407 167.544 232.925L167.926 233.397L168.079 232.811C168.248 232.243 168.542 231.719 168.939 231.279C169.335 230.838 169.825 230.491 170.372 230.263C170.964 230.028 171.604 229.945 172.236 230.02C172.868 230.096 173.471 230.328 173.99 230.696C174.421 230.996 174.785 231.382 175.06 231.83L175.251 232.136L175.544 231.919C176.241 231.422 177.084 231.174 177.939 231.213C178.793 231.252 179.61 231.577 180.258 232.136C180.801 232.654 181.184 233.317 181.362 234.046C181.541 234.775 181.507 235.54 181.265 236.251L181.086 236.722L181.57 236.607C182.648 236.379 183.773 236.58 184.705 237.168C185.42 237.625 185.977 238.292 186.297 239.079C186.555 239.776 186.688 240.514 186.692 241.257C186.692 241.257 186.794 241.066 186.819 240.671C186.87 240.092 186.792 239.509 186.59 238.964C186.29 238.088 185.713 237.332 184.947 236.811C184.442 236.464 183.874 236.22 183.275 236.094C182.676 235.967 182.058 235.96 181.456 236.072L181.774 236.442C182.135 235.563 182.197 234.589 181.95 233.672C181.703 232.754 181.161 231.943 180.408 231.364C179.655 230.784 178.732 230.469 177.782 230.465C176.832 230.462 175.907 230.771 175.15 231.346L175.634 231.435C175.303 230.925 174.869 230.491 174.36 230.161C173.75 229.726 173.04 229.453 172.296 229.366C171.552 229.279 170.798 229.382 170.104 229.664C169.467 229.934 168.899 230.345 168.442 230.866C167.985 231.386 167.652 232.003 167.467 232.671L168.015 232.556C167.564 231.996 166.958 231.582 166.272 231.365C165.587 231.149 164.852 231.14 164.162 231.341C163.471 231.541 162.855 231.941 162.392 232.49C161.928 233.04 161.637 233.714 161.556 234.429L161.938 234.327C161.72 234.051 161.441 233.829 161.123 233.678C160.804 233.528 160.455 233.454 160.104 233.461C159.585 233.48 159.091 233.688 158.715 234.047C158.485 234.26 158.31 234.527 158.205 234.824C158.154 235.002 158.154 235.117 158.167 235.117Z" fill="#455A64"/>
<path d="M182.526 278.713C182.22 278.815 183.048 280.841 181.914 282.981C180.781 285.121 178.538 285.784 178.628 286.077C178.717 286.37 179.277 286.268 180.195 285.924C181.382 285.453 182.366 284.577 182.972 283.452C183.557 282.372 183.699 281.106 183.367 279.923C183.099 279.006 182.666 278.637 182.526 278.713Z" fill="#263238"/>
<path d="M170.117 315.404L160.027 343.827L162.359 374.913L168.729 428.612C168.729 428.612 192.387 420.624 193.457 421.426C194.527 422.229 182.985 366.988 182.985 366.988L191.329 322.042L190.794 308.805L170.117 315.404Z" fill="#023047"/>
<path d="M170.117 315.404L159.021 340.884L136.089 349.879L112.112 357.306L115.475 374.556C115.642 375.394 115.978 376.188 116.464 376.89C116.949 377.593 117.574 378.188 118.299 378.639C119.023 379.091 119.833 379.389 120.678 379.515C121.522 379.641 122.384 379.592 123.209 379.372L143.503 373.919L162.41 373.053L172.245 350.197L170.117 315.404Z" fill="#023047"/>
<path d="M119.947 350.21L121.629 348.121C123.284 348.106 124.921 348.463 126.419 349.165C128.615 350.97 130.225 353.387 131.044 356.109C131.228 358.066 131.228 360.037 131.044 361.994L119.578 350.21" fill="#A2675F"/>
<path d="M97.5884 337.827C97.5884 338.171 119.246 361.115 119.246 361.115L123.323 365.141H136.318L111.093 337.113L100.213 335.253L97.5884 337.827Z" fill="#263238"/>
<path d="M185.431 388.799C185.238 388.55 185.071 388.281 184.934 387.997L183.66 385.627C182.564 383.563 181.01 380.531 179.201 376.709C177.049 372.292 175.135 367.763 173.468 363.141C172.992 361.794 172.596 360.42 172.283 359.026C172.121 358.295 172.006 357.555 171.939 356.809C171.939 356.07 171.939 355.319 171.939 354.567C171.939 351.548 171.939 348.426 172.092 345.229C172.245 341.177 172.449 337.266 172.691 333.546V333.355L172.869 333.278L179.583 330.323L179.66 330.909L174.564 330.234H174.13L174.347 329.864C177.659 324.182 180.411 319.43 182.386 316.028L184.666 312.206L185.291 311.213C185.354 311.091 185.436 310.979 185.533 310.882C185.494 311.011 185.438 311.136 185.367 311.251L184.819 312.296L182.666 316.22L174.844 330.17L174.627 329.749L179.723 330.386L180.806 330.514L179.812 330.96L173.124 333.941L173.315 333.661C173.086 337.381 172.882 341.305 172.729 345.33C172.614 348.515 172.538 351.624 172.563 354.631C172.563 355.382 172.563 356.121 172.563 356.86C172.619 357.572 172.725 358.279 172.882 358.975C173.183 360.346 173.561 361.698 174.016 363.026C175.812 368.237 177.838 372.785 179.609 376.594C181.379 380.404 182.832 383.436 183.864 385.512L185.036 387.933C185.189 388.212 185.321 388.501 185.431 388.799Z" fill="#263238"/>
<path d="M110.367 350.21C110.367 350.21 107.08 352.58 107.169 353.93C107.17 354.525 107.315 355.11 107.593 355.636C107.87 356.162 108.271 356.613 108.761 356.949C109.526 357.204 111.794 358.376 111.794 358.376C111.794 358.376 109.768 360.313 110.367 362.338C110.477 362.88 110.707 363.389 111.04 363.83C111.373 364.271 111.8 364.632 112.29 364.886C112.337 366.296 112.621 367.687 113.131 369.001C113.905 370.052 115.047 370.771 116.329 371.014C117.044 372.465 117.897 373.843 118.877 375.129C119.861 376.043 121.085 376.657 122.406 376.9C122.406 376.9 125.438 377.244 127.031 376.149C128.112 375.605 129.013 374.76 129.626 373.715C130.238 372.671 130.536 371.472 130.483 370.263C130.483 370.263 137.719 366.644 137.796 364.797C137.872 362.95 137.044 362.364 137.044 362.364L133.426 363.026C133.426 363.026 132.916 361.103 131.834 360.924C130.751 360.746 117.539 363.956 117.539 363.956C117.539 363.956 126.534 362.529 126.788 360.759C127.043 358.988 127.12 357.484 125.769 357.14C124.419 356.796 114.851 357.841 114.851 357.841L114.342 356.134C114.342 356.134 116.89 356.223 116.89 353.955C116.89 351.688 115.463 351.178 115.463 351.178L110.367 350.21Z" fill="#A2675F"/>
<path d="M185.431 310.856L186.526 319.634L179.736 357.816L186.628 390.774L222.351 401.335L236.403 395.271L231.6 302.753L218.835 293.784L213.93 290.485L195.534 318.334L185.431 310.856Z" fill="#FAFAFA"/>
<path d="M217.854 293.084L226.772 297.059L258.393 301.314L275.452 391.029L277.592 401.335L310.295 450.27C310.65 450.801 310.892 451.399 311.005 452.028C311.118 452.657 311.101 453.302 310.954 453.923C310.807 454.545 310.534 455.13 310.151 455.641C309.768 456.152 309.284 456.579 308.728 456.895L281.974 472.183C280.98 472.692 279.834 472.818 278.753 472.536C277.672 472.254 276.733 471.584 276.114 470.654L242.06 419.375L225.192 397.781C225.192 397.781 215.089 367.205 213.726 354.197C212.665 342.794 212.665 331.317 213.726 319.914C214.516 312.13 217.854 293.084 217.854 293.084Z" fill="#023047"/>
<path d="M258.342 301.314C260.4 302.394 262.188 303.926 263.571 305.795C264.954 307.663 265.897 309.82 266.33 312.105C268.343 322.755 274.407 341.33 276.687 361.166C279.872 388.914 272.407 397.475 268.89 402.266C265.374 407.056 243.563 417.222 243.563 417.222L227.167 395.386L245.321 380.506L243.729 341.967C243.729 341.967 237.359 333.202 240.544 320.182C243.729 307.161 253.029 300.524 258.38 301.314H258.342Z" fill="#023047"/>
<g opacity="0.3">
<path d="M275.26 390.303C272.776 397.029 269.935 402.711 264.151 405.909C257.985 409.323 249.411 414.139 243.563 417.222L247.844 423.873C254.558 422.841 266.954 415.018 270.98 409.553C274.876 403.946 276.414 397.032 275.26 390.303Z" fill="black"/>
</g>
<path d="M243.334 343.98C243.388 344.168 243.427 344.359 243.449 344.553C243.525 344.974 243.614 345.534 243.742 346.248C243.971 347.789 244.315 349.981 244.748 352.796C245.615 358.529 246.85 366.81 248.366 377.002V377.13L248.264 377.219L227.384 395.615V395.22L243.793 417.044L243.385 416.955C248.838 414.203 254.482 411.222 260.062 407.922C261.654 406.967 263.221 406.011 264.737 404.979C266.243 404.009 267.655 402.9 268.954 401.667C271.166 398.923 272.917 395.838 274.139 392.532C276.389 386.218 277.431 379.536 277.21 372.836C277.057 366.759 276.474 360.701 275.464 354.707C274.585 349.063 273.566 343.84 272.56 339.088C270.559 329.571 268.623 321.94 267.272 316.678C266.585 314.13 265.998 312.041 265.68 310.627C265.502 309.952 265.362 309.429 265.272 309.047C265.209 308.87 265.166 308.686 265.145 308.499C265.145 308.499 265.221 308.678 265.336 309.021C265.451 309.365 265.604 309.926 265.807 310.589C266.215 311.952 266.801 313.99 267.527 316.615C268.954 321.863 270.954 329.482 273.018 338.986C274.063 343.738 275.108 348.974 276.012 354.631C277.048 360.644 277.648 366.724 277.808 372.823C278.054 379.607 277.017 386.376 274.751 392.774C273.499 396.155 271.704 399.309 269.438 402.113C268.111 403.391 266.66 404.535 265.107 405.527C263.578 406.559 261.998 407.527 260.406 408.483C254.787 411.808 249.156 414.789 243.678 417.528L243.436 417.655L243.27 417.439L226.899 395.577L226.734 395.348L226.938 395.169L247.895 376.849L247.819 377.066C246.379 366.874 245.271 358.618 244.417 352.86C244.035 350.044 243.729 347.764 243.525 346.299C243.436 345.573 243.36 345.025 243.309 344.592C243.304 344.387 243.313 344.183 243.334 343.98Z" fill="#263238"/>
<path d="M220.185 376.938C220.177 376.639 220.202 376.34 220.262 376.047C220.338 375.41 220.453 374.569 220.58 373.499C220.912 371.231 221.358 368.084 221.918 364.237C223.026 356.414 224.772 345.636 226.466 333.661C227.256 327.877 228.008 322.373 228.683 317.353L228.887 317.672L223.485 315.608L222.95 315.404L223.421 315.098L228.849 311.582L228.747 311.824C228.097 307.327 227.575 303.645 227.192 300.995C227.04 299.721 226.899 298.791 226.81 298.04C226.743 297.696 226.713 297.345 226.721 296.995C226.827 297.327 226.903 297.668 226.95 298.014C227.078 298.766 227.256 299.734 227.473 300.957C227.906 303.594 228.505 307.263 229.231 311.748V311.913L229.103 312.003L223.714 315.57L223.651 315.073L229.078 317.099L229.307 317.188V317.43C228.645 322.449 227.906 327.966 227.129 333.75C225.447 345.687 223.625 356.465 222.389 364.326C221.752 368.148 221.23 371.307 220.848 373.562L220.402 376.11C220.356 376.393 220.284 376.67 220.185 376.938Z" fill="#263238"/>
<path d="M253.526 302.524C253.602 302.626 251.984 303.798 249.806 306.002C248.541 307.33 247.39 308.762 246.366 310.283C243.831 314.014 242.095 318.231 241.27 322.666C240.938 324.469 240.759 326.298 240.735 328.131C240.735 331.278 241.079 333.227 240.952 333.227C240.78 332.795 240.669 332.34 240.62 331.877C240.512 331.351 240.435 330.82 240.391 330.285C240.312 329.569 240.269 328.851 240.264 328.131C240.215 326.263 240.347 324.394 240.659 322.551C241.069 320.299 241.701 318.093 242.544 315.965C243.432 313.852 244.529 311.833 245.818 309.939C246.885 308.404 248.097 306.975 249.436 305.671C249.943 305.168 250.474 304.692 251.029 304.244C251.435 303.889 251.86 303.557 252.303 303.25C252.677 302.955 253.088 302.711 253.526 302.524Z" fill="#263238"/>
<path d="M162.218 373.078C162.04 373.078 161.454 366.912 160.944 359.268C160.435 351.624 160.116 345.432 160.307 345.407C160.499 345.381 161.072 351.586 161.581 359.217C162.091 366.848 162.397 373.065 162.218 373.078Z" fill="#263238"/>
<path d="M269.922 429.325L274.827 439.339L297.543 424.803L289.682 415.897L269.922 429.325Z" fill="#023047"/>
<path d="M269.922 429.338C270.352 428.963 270.808 428.618 271.286 428.306L275.286 425.491L289.504 415.655L289.733 415.502L289.911 415.706L297.798 424.624L298.052 424.917L297.721 425.121L296.727 425.758L274.955 439.53L274.725 439.67L274.623 439.428L271.107 431.988C270.738 431.173 270.432 430.51 270.203 429.988C270.089 429.772 269.996 429.546 269.922 429.313C270.082 429.532 270.219 429.766 270.33 430.013C270.598 430.536 270.942 431.198 271.375 432.001L275.044 439.224L274.7 439.135L296.358 425.121L297.352 424.484V424.981C294.574 421.834 291.924 418.828 289.504 416.063H289.911L275.681 425.554L271.528 428.268L270.394 428.994L269.922 429.338Z" fill="#263238"/>
<g opacity="0.3">
<path d="M270.088 429.771C270.19 429.962 275.184 445.148 275.184 445.148L296.371 430.115L294.549 426.79L274.827 439.403L270.088 429.771Z" fill="black"/>
</g>
<g opacity="0.3">
<path d="M227.358 301.25L231.18 313.672L227.358 315.404L232.39 317.876C232.39 317.876 224.466 361.192 223.472 365.141C222.479 369.091 221.256 370.365 221.256 370.365L228.989 317.455L223.587 315.404L228.989 311.85L227.358 301.25Z" fill="black"/>
</g>
<path d="M143.542 368.938C143.441 365.958 142.957 363.003 142.102 360.147C141.037 357.369 139.624 354.736 137.898 352.312C138.623 352.834 139.245 353.486 139.732 354.236C142.326 357.725 143.756 361.941 143.822 366.288C143.888 367.181 143.793 368.078 143.542 368.938Z" fill="#263238"/>
<g opacity="0.3">
<path d="M160.116 344.184C156.294 353.611 157.708 363.944 162.129 373.078C161.441 362.568 161.034 354.376 160.116 344.184Z" fill="black"/>
</g>
<path d="M215.089 300.932C214.917 301.38 214.695 301.807 214.427 302.206L212.452 305.505C210.796 308.308 208.63 312.206 206.426 316.653C204.948 319.647 203.687 322.513 202.604 324.934L202.464 325.29L202.171 325.061C200.487 323.717 198.903 322.252 197.432 320.679C196.842 320.113 196.32 319.48 195.878 318.793C196.515 319.302 197.115 319.856 197.674 320.449C199.215 321.916 200.831 323.302 202.515 324.602L202.082 324.717C203.063 322.258 204.299 319.379 205.777 316.36C207.643 312.549 209.719 308.845 211.994 305.263C212.873 303.887 213.624 302.804 214.159 302.065C214.422 301.651 214.734 301.27 215.089 300.932Z" fill="#263238"/>
<path d="M194.17 318.5C193.669 320.724 192.957 322.896 192.043 324.985L191.877 325.431L191.52 325.125L191.355 324.972C189.502 323.498 187.908 321.723 186.641 319.723C186.781 319.596 188.883 321.94 191.737 324.475L191.903 324.615L191.38 324.755C192.108 322.586 193.042 320.491 194.17 318.5Z" fill="#263238"/>
<path d="M197.916 383.691C197.845 383.495 197.81 383.287 197.814 383.079C197.814 382.582 197.712 381.996 197.648 381.283C197.546 379.614 197.394 377.384 197.215 374.671C196.871 369.091 196.476 361.383 196.132 352.86C195.788 344.337 195.61 336.616 195.61 331.023C195.61 328.221 195.61 325.927 195.699 324.399C195.699 323.685 195.699 323.125 195.788 322.602C195.788 322.392 195.814 322.182 195.865 321.978C195.9 322.185 195.9 322.396 195.865 322.602C195.865 323.086 195.865 323.685 195.865 324.399C195.865 326.068 195.941 328.297 195.992 331.011C196.107 336.604 196.374 344.311 196.706 352.834C197.037 361.357 197.355 368.976 197.585 374.645C197.687 377.372 197.763 379.601 197.827 381.27C197.827 381.983 197.827 382.544 197.827 383.066C197.876 383.271 197.906 383.48 197.916 383.691Z" fill="#263238"/>
<path d="M123.323 555.744L126.623 586.843C126.623 586.843 96.0469 600.653 96.1616 606.449L156.702 602.233L153.555 553.54L123.323 555.744Z" fill="#023047"/>
<path d="M145.16 582.919C145.747 583.068 146.263 583.422 146.613 583.917C146.963 584.412 147.126 585.016 147.071 585.62C146.956 586.218 146.615 586.75 146.12 587.106C145.625 587.461 145.012 587.613 144.408 587.531C143.772 587.398 143.211 587.027 142.839 586.494C142.467 585.962 142.313 585.307 142.408 584.664C142.589 584.051 143.001 583.533 143.558 583.219C144.114 582.905 144.771 582.82 145.389 582.982" fill="#E0E0E0"/>
<path d="M156.842 603.494L156.536 598.78L98.3401 603.214C98.3401 603.214 95.7156 604.577 96.1615 606.449L156.842 603.494Z" fill="#E0E0E0"/>
<path d="M125.616 586.613C125.616 586.906 127.132 586.932 128.661 587.785C130.19 588.639 131.044 589.824 131.298 589.684C131.553 589.543 131.005 587.875 129.145 586.881C127.285 585.887 125.54 586.346 125.616 586.613Z" fill="#263238"/>
<path d="M119.45 589.684C119.45 589.964 120.724 590.384 121.807 591.569C122.89 592.754 123.285 594.041 123.578 594.015C123.871 593.99 123.947 592.295 122.559 590.856C121.17 589.416 119.438 589.391 119.45 589.684Z" fill="#263238"/>
<path d="M116.38 597.506C116.647 597.506 116.953 596.041 116.087 594.474C115.221 592.907 113.781 592.359 113.679 592.614C113.577 592.869 114.482 593.684 115.182 594.971C115.883 596.258 116.074 597.506 116.38 597.506Z" fill="#263238"/>
<path d="M125.655 579.441C125.795 579.696 127.12 579.199 128.801 579.186C130.483 579.173 131.821 579.619 131.961 579.364C132.101 579.109 130.763 578.09 128.789 578.154C126.814 578.218 125.489 579.211 125.655 579.441Z" fill="#263238"/>
<path d="M112.545 430.217L84.5172 444.078C84.5172 444.078 60.9991 420.229 55.5719 422.293L80.4913 477.623L125.081 457.812L112.545 430.217Z" fill="#023047"/>
<path d="M94.6073 460.105C94.6871 460.711 94.54 461.324 94.1942 461.828C93.8483 462.331 93.3284 462.689 92.7345 462.831C92.133 462.934 91.5152 462.8 91.0097 462.459C90.5042 462.117 90.15 461.593 90.0209 460.997C89.926 460.354 90.0802 459.699 90.4519 459.167C90.8237 458.634 91.385 458.263 92.0211 458.13C92.6477 458.108 93.2596 458.324 93.7327 458.736C94.2059 459.147 94.5048 459.723 94.5691 460.347" fill="#E0E0E0"/>
<path d="M79.3447 478.196L83.6636 476.272L59.3429 423.21C59.3429 423.21 57.1644 421.235 55.5209 422.293L79.3447 478.196Z" fill="#E0E0E0"/>
<path d="M84.377 443.059C84.1095 443.186 84.5936 444.588 84.377 446.308C84.1605 448.028 83.2941 449.251 83.5107 449.455C83.7273 449.658 85.116 448.55 85.3962 446.461C85.6765 444.371 84.6064 442.881 84.377 443.059Z" fill="#263238"/>
<path d="M79.3575 438.332C79.0772 438.332 79.1409 439.772 78.4147 441.199C77.6885 442.626 76.5929 443.441 76.7203 443.747C76.8477 444.053 78.4657 443.492 79.332 441.696C80.1983 439.899 79.625 438.256 79.3575 438.332Z" fill="#263238"/>
<path d="M70.9363 438.167C70.9363 438.434 72.5033 438.167 73.6754 436.893C74.8475 435.619 74.8602 434.001 74.58 433.988C74.2997 433.975 73.8665 435.122 72.8855 436.218C71.9046 437.313 70.8344 437.887 70.9363 438.167Z" fill="#263238"/>
<path d="M91.1165 440.6C90.9254 440.83 91.8554 441.874 92.3905 443.479C92.9256 445.085 93.0275 446.461 93.3205 446.486C93.6136 446.512 94.0722 444.945 93.3205 443.11C92.5689 441.275 91.2694 440.371 91.1165 440.6Z" fill="#263238"/>
<path d="M126.228 447.849C123.197 448.605 120.447 450.216 118.306 452.491C116.164 454.765 114.722 457.607 114.15 460.678C112.099 471.469 119.527 580.001 119.527 580.001L157.619 576.944L155.288 503.816L154.345 489.063L157.619 486.515L224.568 474.731L214.376 447.059L203.178 427.567L151.899 440.307L126.228 447.849Z" fill="#263238"/>
<path d="M252.252 429.567C252.252 429.567 224.555 389.526 216.453 383.703C209.777 378.9 199.738 378.913 193.521 381.703C187.303 384.493 90.3266 432.599 90.3266 432.599L104.557 468.271L196.871 436.281L210.63 457.939L223.447 474.909L259.425 475.189C261.119 475.189 268.852 459.901 268.852 459.901L252.252 429.567Z" fill="#263238"/>
<path d="M113.794 469.049C113.775 468.926 113.775 468.802 113.794 468.679C113.794 468.386 113.794 468.029 113.794 467.583C113.794 467.138 113.794 466.488 113.794 465.787C113.794 465.086 113.959 464.271 114.061 463.354C114.163 462.437 114.456 461.456 114.66 460.347C114.775 459.799 115.004 459.252 115.182 458.678C115.367 458.072 115.597 457.48 115.87 456.907C117.05 454.146 118.929 451.739 121.323 449.926C122.718 448.865 124.306 448.086 125.999 447.633L131.515 446.69L143.656 444.664L171.493 440.052L196.769 435.912H196.973L197.088 436.09C204.49 447.645 210.503 457.748 215.561 464.271C218.007 467.571 219.969 470.195 221.345 472.03C221.995 472.909 222.504 473.597 222.886 474.094L223.269 474.629L223.396 474.82C223.396 474.82 223.396 474.82 223.23 474.667L222.797 474.157L221.179 472.157C219.778 470.399 217.739 467.813 215.255 464.513C210.095 457.99 203.993 447.951 196.565 436.485L196.871 436.625L171.595 440.804L143.758 445.365L131.604 447.34L126.113 448.231C124.482 448.66 122.947 449.395 121.591 450.397C119.248 452.153 117.396 454.483 116.214 457.162C115.932 457.719 115.697 458.298 115.514 458.895C115.301 459.432 115.118 459.981 114.966 460.538C114.699 461.511 114.486 462.498 114.329 463.494L113.985 465.902C113.985 466.59 113.908 467.176 113.883 467.685C113.857 468.195 113.883 468.501 113.806 468.781C113.809 468.87 113.805 468.96 113.794 469.049Z" fill="#455A64"/>
<path d="M210.083 411.502C210.179 411.877 210.226 412.262 210.223 412.649C210.308 413.696 210.308 414.748 210.223 415.795C210.079 417.355 209.793 418.899 209.369 420.407C208.831 422.248 208.123 424.036 207.254 425.745C206.341 427.432 205.274 429.031 204.069 430.523C203.063 431.725 201.955 432.837 200.757 433.848C199.96 434.529 199.107 435.142 198.209 435.683C197.892 435.91 197.545 436.09 197.177 436.218C197.113 436.116 198.451 435.249 200.451 433.491C201.582 432.458 202.63 431.338 203.585 430.141C204.746 428.665 205.778 427.092 206.668 425.44C207.52 423.766 208.227 422.023 208.783 420.229C209.227 418.763 209.551 417.263 209.751 415.744C210.044 413.158 209.955 411.502 210.083 411.502Z" fill="#455A64"/>
<path d="M531.131 538.494L364.428 538.405C354.799 538.398 345.567 534.569 338.761 527.758C331.955 520.947 328.131 511.712 328.131 502.083L328.221 84.084C328.221 79.3137 329.161 74.5901 330.987 70.1832C332.813 65.7764 335.49 61.7726 338.864 58.4006C342.239 55.0287 346.244 52.3547 350.652 50.5315C355.061 48.7083 359.785 47.7716 364.555 47.775L531.258 47.9279C540.887 47.9346 550.119 51.7643 556.925 58.5752C563.731 65.3862 567.554 74.6209 567.554 84.2496L567.478 502.198C567.474 506.968 566.532 511.69 564.703 516.096C562.875 520.501 560.197 524.503 556.821 527.874C553.446 531.244 549.44 533.917 545.032 535.739C540.624 537.561 535.9 538.498 531.131 538.494Z" fill="#263238"/>
<path d="M531.08 62.7063H498.758C496.63 62.7564 494.609 63.6482 493.138 65.1863C491.667 66.7243 490.866 68.783 490.91 70.9108V76.7712C490.934 77.8253 490.75 78.8737 490.368 79.8566C489.987 80.8394 489.415 81.7375 488.686 82.4994C487.958 83.2613 487.086 83.8722 486.121 84.2971C485.156 84.722 484.117 84.9526 483.063 84.9758H420.063C419.009 84.9526 417.97 84.722 417.005 84.2971C416.04 83.8722 415.168 83.2613 414.44 82.4994C413.711 81.7375 413.139 80.8394 412.758 79.8566C412.376 78.8737 412.192 77.8253 412.215 76.7712V70.8344C412.26 68.7065 411.459 66.6479 409.988 65.1098C408.516 63.5718 406.495 62.68 404.368 62.6298H392.991H364.708C357.95 62.6298 351.469 65.3143 346.691 70.0927C341.912 74.8712 339.228 81.3521 339.228 88.1098L339.152 496.057C339.151 502.804 341.827 509.275 346.592 514.052C351.357 518.829 357.821 521.52 364.568 521.537L530.952 521.627C537.71 521.627 544.191 518.942 548.969 514.164C553.748 509.385 556.432 502.904 556.432 496.147L556.521 88.199C556.525 81.4457 553.847 74.9673 549.077 70.1872C544.306 65.4071 537.833 62.7164 531.08 62.7063Z" fill="white"/>
<path d="M556.509 88.148C556.509 81.3903 553.824 74.9094 549.046 70.131C544.267 65.3525 537.786 62.668 531.029 62.668H498.707C496.58 62.7182 494.559 63.61 493.087 65.1481C491.616 66.6861 490.815 68.7447 490.859 70.8726V76.733C490.883 77.7871 490.699 78.8355 490.317 79.8184C489.936 80.8012 489.364 81.6993 488.635 82.4612C487.907 83.2231 487.035 83.834 486.07 84.2589C485.105 84.6838 484.066 84.9144 483.012 84.9376H420.012C418.958 84.9144 417.919 84.6838 416.954 84.2589C415.989 83.834 415.117 83.2231 414.389 82.4612C413.66 81.6993 413.088 80.8012 412.707 79.8184C412.325 78.8355 412.141 77.7871 412.164 76.733V70.8344C412.209 68.7065 411.408 66.6479 409.937 65.1098C408.465 63.5718 406.444 62.68 404.317 62.6298H392.94H364.657C357.899 62.6298 351.418 65.3143 346.64 70.0927C341.861 74.8712 339.177 81.3521 339.177 88.1098L339.101 127.12H556.496L556.509 88.148Z" fill="#F5F5F5"/>
<path d="M538.826 102.481C538.826 102.595 534.927 102.735 530.124 102.774C527.223 102.873 524.319 102.822 521.423 102.621C527.217 102.277 533.026 102.23 538.826 102.481Z" fill="#263238"/>
<path d="M538.902 106.927C536.013 107.176 533.113 107.274 530.213 107.22C527.312 107.32 524.408 107.269 521.512 107.067C521.512 106.952 525.398 106.825 530.213 106.774C535.029 106.723 538.902 106.812 538.902 106.927Z" fill="#263238"/>
<path d="M538.902 111.386C538.902 111.5 535.016 111.628 530.213 111.666C527.312 111.766 524.408 111.719 521.512 111.526C527.302 111.182 533.107 111.135 538.902 111.386Z" fill="#263238"/>
<path d="M387.436 410.534L388.315 408.686C389.863 409.942 391.801 410.618 393.793 410.597C396.647 410.597 397.883 409.489 397.883 408.049C397.883 404.011 387.844 406.559 387.844 400.405C387.844 397.857 389.831 395.666 394.214 395.666C396.095 395.63 397.946 396.144 399.539 397.144L398.762 399.017C397.402 398.15 395.826 397.682 394.214 397.666C391.398 397.666 390.188 398.851 390.188 400.304C390.188 404.355 400.227 401.82 400.227 407.948C400.227 410.496 398.189 412.661 393.857 412.661C391.534 412.727 389.261 411.974 387.436 410.534Z" fill="#263238"/>
<path d="M402.164 406.151C402.15 405.288 402.314 404.431 402.647 403.635C402.979 402.838 403.472 402.118 404.095 401.52C404.718 400.922 405.457 400.46 406.267 400.16C407.076 399.861 407.939 399.732 408.801 399.781C409.813 399.722 410.823 399.94 411.721 400.411C412.619 400.883 413.371 401.59 413.897 402.457L412.177 403.565C411.809 402.999 411.302 402.536 410.704 402.222C410.107 401.907 409.438 401.751 408.763 401.769C407.633 401.829 406.57 402.321 405.791 403.142C405.013 403.963 404.579 405.052 404.579 406.183C404.579 407.314 405.013 408.403 405.791 409.224C406.57 410.045 407.633 410.537 408.763 410.597C409.439 410.619 410.109 410.464 410.707 410.15C411.305 409.835 411.812 409.37 412.177 408.801L413.897 409.897C413.369 410.763 412.617 411.47 411.72 411.944C410.823 412.417 409.814 412.639 408.801 412.585C407.934 412.633 407.067 412.5 406.254 412.197C405.44 411.893 404.698 411.424 404.075 410.82C403.452 410.216 402.96 409.489 402.631 408.685C402.302 407.882 402.143 407.019 402.164 406.151Z" fill="#263238"/>
<path d="M426.79 404.852V412.419H424.637V410.763C424.158 411.386 423.53 411.877 422.811 412.191C422.091 412.505 421.304 412.632 420.522 412.559C417.681 412.559 415.872 411.043 415.872 408.865C415.872 406.686 417.146 405.196 420.968 405.196H424.573V404.75C424.573 402.839 423.452 401.718 421.21 401.718C419.77 401.706 418.369 402.182 417.235 403.068L416.28 401.361C417.783 400.267 419.606 399.703 421.465 399.756C424.854 399.756 426.79 401.412 426.79 404.852ZM424.522 408.585V406.839H421.019C418.764 406.839 418.127 407.705 418.127 408.776C418.127 409.846 419.171 410.814 420.891 410.814C421.654 410.87 422.415 410.685 423.067 410.285C423.718 409.885 424.228 409.29 424.522 408.585Z" fill="#263238"/>
<path d="M442.919 405.196V412.419H440.638V405.463C440.638 403.004 439.364 401.794 437.262 401.794C436.712 401.753 436.16 401.833 435.645 402.031C435.13 402.228 434.666 402.537 434.284 402.935C433.903 403.333 433.615 403.811 433.44 404.334C433.266 404.857 433.209 405.413 433.275 405.96V412.419H431.007V399.87H433.16V401.769C433.698 401.096 434.39 400.562 435.177 400.212C435.963 399.862 436.823 399.705 437.683 399.756C440.804 399.756 442.919 401.514 442.919 405.196Z" fill="#263238"/>
<path d="M459.035 405.196V412.419H456.767V405.463C456.767 403.004 455.493 401.794 453.378 401.794C452.829 401.752 452.277 401.833 451.763 402.03C451.248 402.228 450.784 402.537 450.404 402.935C450.024 403.334 449.737 403.812 449.564 404.335C449.391 404.858 449.336 405.413 449.404 405.96V412.419H447.174V399.87H449.353V401.769C449.889 401.094 450.581 400.56 451.368 400.209C452.155 399.859 453.015 399.703 453.875 399.756C456.882 399.756 459.035 401.514 459.035 405.196Z" fill="#263238"/>
<path d="M462.857 395.985C462.844 395.677 462.924 395.372 463.086 395.11C463.248 394.848 463.485 394.641 463.766 394.515C464.047 394.388 464.36 394.349 464.663 394.402C464.966 394.456 465.247 394.598 465.469 394.813C465.69 395.027 465.842 395.302 465.906 395.604C465.969 395.905 465.941 396.219 465.824 396.504C465.708 396.789 465.508 397.033 465.252 397.204C464.996 397.375 464.694 397.465 464.386 397.462C464.188 397.468 463.991 397.433 463.807 397.361C463.622 397.289 463.454 397.182 463.311 397.044C463.169 396.906 463.056 396.742 462.978 396.56C462.9 396.378 462.859 396.183 462.857 395.985ZM463.252 399.87H465.532V412.419H463.252V399.87Z" fill="#263238"/>
<path d="M481.776 405.196V412.419H479.495V405.463C479.495 403.004 478.221 401.794 476.107 401.794C475.557 401.752 475.005 401.833 474.491 402.03C473.977 402.228 473.512 402.537 473.132 402.935C472.752 403.334 472.465 403.812 472.292 404.335C472.119 404.858 472.064 405.413 472.132 405.96V412.419H469.864V399.87H472.042V401.769C472.581 401.096 473.272 400.562 474.059 400.212C474.846 399.862 475.705 399.705 476.565 399.756C479.61 399.756 481.776 401.514 481.776 405.196Z" fill="#263238"/>
<path d="M498.058 399.87V410.725C498.058 415.146 495.815 417.158 491.547 417.158C489.395 417.249 487.277 416.587 485.56 415.286L486.643 413.54C488.018 414.62 489.722 415.196 491.471 415.171C494.439 415.171 495.79 413.795 495.79 410.954V409.96C495.226 410.597 494.528 411.101 493.746 411.436C492.964 411.771 492.117 411.928 491.267 411.897C490.447 411.934 489.627 411.805 488.858 411.517C488.088 411.229 487.385 410.788 486.791 410.221C486.197 409.653 485.725 408.971 485.402 408.216C485.079 407.461 484.912 406.648 484.912 405.826C484.912 405.005 485.079 404.192 485.402 403.437C485.725 402.681 486.197 401.999 486.791 401.432C487.385 400.865 488.088 400.423 488.858 400.135C489.627 399.847 490.447 399.718 491.267 399.756C492.147 399.721 493.022 399.888 493.827 400.246C494.631 400.604 495.342 401.143 495.904 401.82V399.87H498.058ZM495.828 405.82C495.877 404.953 495.664 404.092 495.217 403.348C494.77 402.604 494.11 402.012 493.323 401.647C492.535 401.282 491.656 401.163 490.8 401.304C489.944 401.445 489.15 401.839 488.52 402.437C487.891 403.035 487.456 403.807 487.271 404.655C487.086 405.503 487.16 406.387 487.484 407.192C487.807 407.998 488.365 408.687 489.085 409.172C489.805 409.656 490.654 409.913 491.522 409.909C492.08 409.952 492.641 409.878 493.168 409.69C493.696 409.503 494.178 409.207 494.584 408.822C494.99 408.436 495.31 407.97 495.524 407.453C495.739 406.936 495.842 406.379 495.828 405.82Z" fill="#263238"/>
<path d="M501.319 410.929C501.316 410.716 501.355 410.504 501.435 410.307C501.516 410.11 501.635 409.931 501.786 409.781C501.937 409.631 502.117 409.514 502.315 409.435C502.513 409.356 502.724 409.318 502.937 409.323C503.366 409.323 503.778 409.494 504.081 409.797C504.385 410.101 504.555 410.512 504.555 410.941C504.555 411.371 504.385 411.782 504.081 412.086C503.778 412.389 503.366 412.559 502.937 412.559C502.723 412.561 502.511 412.52 502.313 412.439C502.115 412.357 501.935 412.237 501.785 412.085C501.634 411.933 501.515 411.752 501.435 411.554C501.355 411.355 501.316 411.143 501.319 410.929Z" fill="#263238"/>
<path d="M506.695 410.929C506.692 410.716 506.731 410.504 506.812 410.307C506.892 410.11 507.011 409.931 507.162 409.781C507.313 409.631 507.493 409.514 507.691 409.435C507.889 409.356 508.1 409.318 508.313 409.323C508.742 409.323 509.154 409.494 509.457 409.797C509.761 410.101 509.931 410.512 509.931 410.941C509.931 411.371 509.761 411.782 509.457 412.086C509.154 412.389 508.742 412.559 508.313 412.559C508.099 412.561 507.887 412.52 507.689 412.439C507.491 412.357 507.312 412.237 507.161 412.085C507.01 411.933 506.891 411.752 506.811 411.554C506.731 411.355 506.692 411.143 506.695 410.929Z" fill="#263238"/>
<path d="M512.072 410.929C512.068 410.716 512.108 410.504 512.188 410.307C512.268 410.11 512.387 409.931 512.538 409.781C512.69 409.631 512.869 409.514 513.067 409.435C513.265 409.356 513.477 409.318 513.69 409.323C514.119 409.323 514.53 409.494 514.834 409.797C515.137 410.101 515.308 410.512 515.308 410.941C515.308 411.371 515.137 411.782 514.834 412.086C514.53 412.389 514.119 412.559 513.69 412.559C513.476 412.561 513.263 412.52 513.065 412.439C512.867 412.357 512.688 412.237 512.537 412.085C512.386 411.933 512.268 411.752 512.188 411.554C512.108 411.355 512.068 411.143 512.072 410.929Z" fill="#263238"/>
<path d="M512.161 433.568H379.295C367.601 433.568 358.121 443.047 358.121 454.742V459.239C358.121 470.933 367.601 480.413 379.295 480.413H512.161C523.855 480.413 533.335 470.933 533.335 459.239V454.742C533.335 443.047 523.855 433.568 512.161 433.568Z" fill="#EBEBEB"/>
<path d="M391.946 452.754L389.003 460.627H387.64L385.36 454.652L383.066 460.627H381.69L378.773 452.754H380.123L382.404 459.022L384.786 452.754H386.022L388.353 459.06L390.71 452.754H391.946Z" fill="#263238"/>
<path d="M405.132 452.754L402.189 460.627H400.826L398.558 454.652L396.252 460.627H394.94L392.01 452.754H393.36L395.653 459.022L398.023 452.754H399.233L401.565 459.06L403.909 452.754H405.132Z" fill="#263238"/>
<path d="M418.42 452.754L415.49 460.627H414.114L411.846 454.652L409.54 460.627H408.177L405.247 452.754H406.597L408.89 459.022L411.26 452.754H412.47L414.802 459.06L417.146 452.754H418.42Z" fill="#263238"/>
<path d="M418.713 459.697C418.709 459.564 418.733 459.431 418.782 459.306C418.831 459.182 418.905 459.069 418.999 458.974C419.093 458.878 419.205 458.803 419.329 458.752C419.453 458.702 419.586 458.676 419.719 458.678C419.99 458.678 420.249 458.786 420.44 458.977C420.631 459.168 420.739 459.427 420.739 459.697C420.739 459.968 420.631 460.227 420.44 460.418C420.249 460.609 419.99 460.717 419.719 460.717C419.586 460.717 419.454 460.69 419.331 460.639C419.208 460.587 419.097 460.512 419.003 460.417C418.909 460.322 418.836 460.21 418.786 460.086C418.736 459.963 418.711 459.831 418.713 459.697Z" fill="#263238"/>
<path d="M421.758 459.799L422.356 458.665C423.18 459.198 424.14 459.481 425.121 459.481C426.395 459.481 426.981 459.086 426.981 458.411C426.981 456.653 422.013 458.181 422.013 455.047C422.013 453.633 423.286 452.678 425.299 452.678C426.301 452.662 427.289 452.908 428.166 453.391L427.554 454.525C426.875 454.101 426.087 453.884 425.287 453.901C424.013 453.901 423.427 454.359 423.427 454.984C423.427 456.844 428.408 455.328 428.408 458.385C428.408 459.812 427.134 460.717 425.019 460.717C423.864 460.748 422.727 460.428 421.758 459.799Z" fill="#263238"/>
<path d="M429.95 450.321C429.949 450.195 429.975 450.071 430.024 449.956C430.073 449.84 430.145 449.736 430.235 449.649C430.326 449.562 430.433 449.495 430.55 449.45C430.667 449.406 430.792 449.385 430.918 449.391C431.048 449.375 431.18 449.388 431.306 449.427C431.431 449.467 431.546 449.532 431.644 449.619C431.743 449.707 431.821 449.814 431.875 449.933C431.929 450.053 431.956 450.183 431.956 450.314C431.956 450.446 431.929 450.575 431.875 450.695C431.821 450.815 431.743 450.922 431.644 451.009C431.546 451.097 431.431 451.162 431.306 451.201C431.18 451.241 431.048 451.253 430.918 451.238C430.793 451.243 430.669 451.223 430.553 451.18C430.437 451.136 430.33 451.069 430.24 450.984C430.15 450.898 430.077 450.796 430.027 450.682C429.978 450.568 429.951 450.445 429.95 450.321ZM430.204 452.754H431.631V460.627H430.204V452.754Z" fill="#263238"/>
<path d="M438.766 460.169C438.273 460.545 437.665 460.739 437.046 460.717C436.708 460.763 436.364 460.731 436.04 460.625C435.717 460.52 435.421 460.342 435.176 460.105C434.93 459.868 434.742 459.579 434.625 459.259C434.507 458.939 434.464 458.597 434.498 458.258V453.926H433.224V452.754H434.498V450.996H435.925V452.716H438.256V453.888H436.001V458.156C435.985 458.327 436.008 458.5 436.066 458.661C436.125 458.823 436.218 458.97 436.339 459.091C436.461 459.213 436.608 459.306 436.77 459.365C436.931 459.423 437.104 459.446 437.275 459.43C437.681 459.432 438.076 459.297 438.396 459.048L438.766 460.169Z" fill="#263238"/>
<path d="M447.314 457.175H440.944C441.036 457.849 441.384 458.463 441.914 458.89C442.445 459.316 443.119 459.523 443.798 459.468C444.222 459.483 444.643 459.407 445.035 459.244C445.426 459.082 445.778 458.836 446.066 458.525L446.856 459.443C446.273 460.032 445.532 460.44 444.723 460.617C443.914 460.795 443.071 460.735 442.295 460.444C441.519 460.153 440.844 459.644 440.351 458.978C439.858 458.312 439.569 457.518 439.517 456.691C439.49 456.162 439.574 455.634 439.762 455.139C439.95 454.644 440.239 454.194 440.61 453.816C440.982 453.439 441.427 453.143 441.919 452.947C442.411 452.751 442.938 452.659 443.467 452.678C443.995 452.668 444.52 452.767 445.007 452.971C445.495 453.174 445.935 453.476 446.301 453.858C446.666 454.24 446.948 454.693 447.129 455.189C447.31 455.686 447.386 456.214 447.352 456.742C447.34 456.856 447.327 457.035 447.314 457.175ZM440.944 456.143H446.04C446.04 455.467 445.772 454.819 445.294 454.341C444.816 453.863 444.168 453.595 443.492 453.595C442.816 453.595 442.168 453.863 441.69 454.341C441.213 454.819 440.944 455.467 440.944 456.143Z" fill="#263238"/>
<path d="M461.086 452.754L458.143 460.627H456.78L454.512 454.652L452.27 460.627H450.907L447.977 452.754H449.327L451.62 459.022L453.99 452.754H455.2L457.532 459.06L459.876 452.754H461.086Z" fill="#263238"/>
<path d="M469.393 457.175H463.023C463.115 457.849 463.462 458.463 463.993 458.89C464.524 459.316 465.198 459.523 465.876 459.468C466.3 459.484 466.722 459.408 467.114 459.246C467.505 459.083 467.857 458.837 468.144 458.525L468.934 459.443C468.351 460.032 467.611 460.44 466.802 460.617C465.992 460.795 465.149 460.735 464.373 460.444C463.598 460.153 462.922 459.644 462.43 458.978C461.937 458.312 461.647 457.518 461.596 456.691C461.569 456.162 461.652 455.634 461.84 455.139C462.029 454.644 462.317 454.194 462.689 453.816C463.06 453.439 463.506 453.143 463.997 452.947C464.489 452.751 465.016 452.659 465.545 452.678C466.074 452.666 466.6 452.764 467.09 452.967C467.579 453.169 468.021 453.471 468.387 453.853C468.754 454.235 469.037 454.689 469.219 455.186C469.401 455.684 469.477 456.213 469.444 456.742C469.431 456.856 469.405 457.035 469.393 457.175ZM463.023 456.143H468.119C468.119 455.467 467.85 454.819 467.372 454.341C466.894 453.863 466.246 453.595 465.571 453.595C464.895 453.595 464.247 453.863 463.769 454.341C463.291 454.819 463.023 455.467 463.023 456.143Z" fill="#263238"/>
<path d="M479.559 456.691C479.588 457.223 479.505 457.755 479.316 458.253C479.128 458.751 478.837 459.204 478.462 459.583C478.088 459.962 477.639 460.259 477.143 460.454C476.647 460.649 476.116 460.739 475.584 460.717C475.041 460.74 474.501 460.63 474.011 460.397C473.52 460.163 473.094 459.814 472.769 459.379V460.653H471.38V449.633H472.807V453.964C473.134 453.551 473.553 453.221 474.031 453C474.509 452.778 475.032 452.672 475.559 452.69C476.091 452.665 476.622 452.751 477.119 452.943C477.616 453.135 478.067 453.429 478.444 453.806C478.821 454.182 479.114 454.633 479.307 455.13C479.499 455.627 479.585 456.159 479.559 456.691ZM478.119 456.691C478.095 456.173 477.919 455.675 477.613 455.256C477.308 454.838 476.887 454.518 476.401 454.336C475.916 454.155 475.389 454.119 474.884 454.235C474.378 454.35 473.918 454.61 473.56 454.984C473.201 455.358 472.96 455.829 472.866 456.338C472.773 456.848 472.83 457.374 473.032 457.851C473.234 458.328 473.571 458.735 474.002 459.023C474.433 459.31 474.939 459.465 475.457 459.468C475.821 459.486 476.185 459.426 476.524 459.291C476.863 459.156 477.169 458.95 477.421 458.687C477.674 458.423 477.867 458.109 477.987 457.764C478.108 457.42 478.153 457.054 478.119 456.691Z" fill="#263238"/>
<path d="M480.693 459.697C480.69 459.564 480.713 459.431 480.762 459.306C480.812 459.182 480.885 459.069 480.979 458.974C481.073 458.878 481.185 458.803 481.309 458.752C481.433 458.702 481.566 458.676 481.699 458.678C481.97 458.678 482.229 458.786 482.42 458.977C482.611 459.168 482.719 459.427 482.719 459.697C482.719 459.968 482.611 460.227 482.42 460.418C482.229 460.609 481.97 460.717 481.699 460.717C481.566 460.717 481.434 460.69 481.311 460.639C481.188 460.587 481.077 460.512 480.983 460.417C480.89 460.322 480.816 460.21 480.766 460.086C480.716 459.963 480.691 459.831 480.693 459.697Z" fill="#263238"/>
<path d="M483.827 456.691C483.815 456.147 483.917 455.608 484.124 455.105C484.331 454.603 484.64 454.149 485.032 453.772C485.423 453.395 485.888 453.104 486.398 452.915C486.907 452.727 487.451 452.646 487.993 452.678C488.628 452.642 489.261 452.78 489.824 453.076C490.387 453.372 490.86 453.816 491.191 454.359L490.108 455.06C489.881 454.701 489.564 454.407 489.189 454.208C488.813 454.009 488.392 453.912 487.967 453.926C487.265 453.974 486.607 454.286 486.126 454.801C485.646 455.315 485.378 455.993 485.378 456.697C485.378 457.401 485.646 458.079 486.126 458.593C486.607 459.108 487.265 459.42 487.967 459.468C488.391 459.482 488.811 459.387 489.186 459.19C489.561 458.994 489.879 458.703 490.108 458.347L491.191 459.022C490.86 459.567 490.389 460.012 489.826 460.31C489.263 460.609 488.629 460.749 487.993 460.717C487.45 460.747 486.906 460.664 486.397 460.474C485.887 460.284 485.422 459.991 485.031 459.613C484.64 459.235 484.331 458.781 484.124 458.278C483.917 457.775 483.816 457.235 483.827 456.691Z" fill="#263238"/>
<path d="M492.197 456.691C492.185 455.88 492.413 455.084 492.854 454.403C493.295 453.722 493.929 453.188 494.674 452.869C495.419 452.549 496.243 452.458 497.04 452.608C497.837 452.757 498.572 453.14 499.151 453.708C499.729 454.276 500.126 455.004 500.291 455.798C500.455 456.592 500.38 457.417 500.074 458.168C499.769 458.919 499.247 459.563 498.574 460.017C497.902 460.47 497.11 460.714 496.299 460.717C495.761 460.741 495.223 460.655 494.719 460.462C494.215 460.27 493.756 459.975 493.371 459.597C492.986 459.22 492.683 458.767 492.481 458.266C492.279 457.766 492.183 457.23 492.197 456.691ZM498.937 456.691C498.937 455.988 498.657 455.314 498.16 454.817C497.664 454.32 496.989 454.041 496.287 454.041C495.584 454.041 494.91 454.32 494.413 454.817C493.916 455.314 493.637 455.988 493.637 456.691C493.637 457.394 493.916 458.068 494.413 458.565C494.91 459.062 495.584 459.341 496.287 459.341C496.989 459.341 497.664 459.062 498.16 458.565C498.657 458.068 498.937 457.394 498.937 456.691Z" fill="#263238"/>
<path d="M515.422 456.092V460.615H514.008V456.245C514.008 454.703 513.256 453.952 511.97 453.952C511.634 453.937 511.299 453.996 510.989 454.126C510.679 454.256 510.401 454.452 510.176 454.702C509.95 454.952 509.783 455.248 509.686 455.57C509.589 455.891 509.564 456.231 509.613 456.563V460.615H508.186V456.245C508.186 454.703 507.434 453.952 506.147 453.952C505.812 453.937 505.477 453.996 505.167 454.126C504.856 454.256 504.579 454.452 504.354 454.702C504.128 454.952 503.961 455.248 503.864 455.57C503.766 455.891 503.741 456.231 503.791 456.563V460.615H502.364V452.741H503.727V453.913C504.04 453.495 504.451 453.159 504.924 452.937C505.398 452.715 505.918 452.613 506.44 452.639C506.988 452.602 507.536 452.72 508.02 452.979C508.504 453.238 508.906 453.628 509.18 454.104C509.524 453.628 509.981 453.244 510.51 452.988C511.04 452.733 511.624 452.613 512.212 452.639C512.663 452.606 513.116 452.674 513.538 452.84C513.959 453.005 514.338 453.263 514.646 453.594C514.955 453.926 515.184 454.322 515.319 454.755C515.453 455.187 515.488 455.644 515.422 456.092Z" fill="#263238"/>
<path d="M514.951 465.8C514.951 465.978 484.897 466.131 447.849 466.131C410.801 466.131 380.735 465.978 380.735 465.8C380.735 465.622 410.776 465.469 447.849 465.469C484.923 465.469 514.951 465.609 514.951 465.8Z" fill="#263238"/>
<path d="M374.734 281.401V289.287H382.62V281.401V273.502H374.734V281.401Z" fill="#263238"/>
<path d="M382.62 234.072H374.734V241.958H382.62V234.072Z" fill="#263238"/>
<path d="M431.364 320.908H423.478V328.794H431.364V320.908Z" fill="#263238"/>
<path d="M382.62 249.844V257.73H374.734V265.616H382.62V273.502H390.506H398.405V281.401H406.291V273.502H414.177V265.616V257.73H406.291V265.616H398.405H390.506V257.73V249.844V241.958H382.62V249.844Z" fill="#263238"/>
<path d="M398.405 234.072H390.506V241.958H398.405H406.291V234.072H398.405Z" fill="#263238"/>
<path d="M433.899 297.479H438.129V289.593H433.899H429.656V297.479H433.899Z" fill="#263238"/>
<path d="M414.177 241.958H406.291V249.844H414.177V241.958Z" fill="#263238"/>
<path d="M469.393 273.502H461.507V281.388H469.393V273.502Z" fill="#263238"/>
<path d="M477.279 186.743H469.393V194.629H477.279V186.743Z" fill="#263238"/>
<path d="M429.95 249.844V241.958H437.836V234.072H429.95V226.186H422.063V234.072H414.177V241.958H422.063V249.844V257.73V265.616V273.502H429.95V265.616V257.73H437.836V249.844H429.95Z" fill="#263238"/>
<path d="M469.393 328.717H477.279V320.831H469.393H461.507V328.717H469.393Z" fill="#263238"/>
<path d="M461.507 186.743H453.62V194.629H461.507V186.743Z" fill="#263238"/>
<path d="M459.532 249.844V241.958H451.646V234.072H443.76V241.958V249.844H435.874V257.73H443.76H451.646V249.844H459.532Z" fill="#263238"/>
<path d="M504.045 234.072H496.159V241.958H504.045V234.072Z" fill="#263238"/>
<path d="M422.293 273.502H414.407V281.388H422.293V273.502Z" fill="#263238"/>
<path d="M453.62 226.186V218.3H461.507V210.401H469.393H477.279V202.515H469.393V194.629H461.507V202.515H453.62V210.401H445.722V218.3H437.836V226.186H445.722H453.62Z" fill="#263238"/>
<path d="M453.62 281.401V273.502H461.507V265.616H453.62H445.722V273.502H437.836V281.401H445.722H453.62Z" fill="#263238"/>
<path d="M477.279 312.945V305.047H469.393H461.506V297.16H453.62V305.047H445.722V312.945H437.836H429.95V320.831H437.836H445.722H453.62V312.945H461.506V320.831H469.393V312.945H477.279Z" fill="#263238"/>
<path d="M445.722 194.629V186.743H437.836H429.95V194.629H422.063V202.515H429.95H437.836V194.629H445.722Z" fill="#263238"/>
<path d="M445.722 202.515H437.836V210.401H445.722V202.515Z" fill="#263238"/>
<path d="M465.443 234.072H457.557V241.958V249.844V257.73H465.443H473.329V249.844H465.443V241.958H473.329V234.072H481.215V226.186H473.329V218.3H465.443V226.186V234.072Z" fill="#263238"/>
<path d="M437.836 210.401H429.95V218.287H437.836V210.401Z" fill="#263238"/>
<path d="M461.507 289.287V297.173H469.393H477.279V289.287H485.165H493.051V281.401H485.165H477.279H469.393V289.287H461.507Z" fill="#263238"/>
<path d="M504.045 257.73H496.159V265.616H504.045V257.73Z" fill="#263238"/>
<path d="M477.279 265.616H469.393V273.502H477.279V265.616Z" fill="#263238"/>
<path d="M497 241.958H489.114H481.215V249.844H489.114V257.73H497V249.844V241.958Z" fill="#263238"/>
<path d="M493.051 265.616H485.165V273.502H493.051V265.616Z" fill="#263238"/>
<path d="M406.291 313.098H429.962V281.388H398.252V289.287H390.519V297.173H398.252V305.059H390.519V312.945H398.252V313.098H398.405V320.831H390.519V336.604H398.405V328.692H406.291V313.098ZM423.885 287.453V307.174H404.164V287.453H423.885Z" fill="#263238"/>
<path d="M508.823 281.401H516.709V273.502H508.823H500.937H493.051V281.401H500.937H508.823Z" fill="#263238"/>
<path d="M508.823 249.844H516.709V241.958V234.072H508.823V241.958V249.844Z" fill="#263238"/>
<path d="M446.027 289.593H438.129V297.479V305.365H446.027V297.479V289.593Z" fill="#263238"/>
<path d="M524.595 281.401H516.709V289.287H524.595V281.401Z" fill="#263238"/>
<path d="M524.608 265.616V257.73H516.709V265.616V273.502H524.608V265.616Z" fill="#263238"/>
<path d="M382.62 320.831H374.734V328.717V336.604H382.62V328.717V320.831Z" fill="#263238"/>
<path d="M524.608 226.186V186.692H485.114V226.186H524.608ZM491.076 220.262V192.654H518.684V220.262H491.076Z" fill="#263238"/>
<path d="M512.772 198.578H497V214.35H512.772V198.578Z" fill="#263238"/>
<path d="M524.608 297.173H485.114V336.604H524.608V297.173ZM491.076 330.692V303.085H518.684V330.692H491.076Z" fill="#263238"/>
<path d="M512.772 308.996H497V324.768H512.772V308.996Z" fill="#263238"/>
<path d="M374.645 186.743V226.237H414.05V186.743H374.645ZM408.164 192.654V220.262H380.557V192.654H408.164Z" fill="#263238"/>
<path d="M402.24 198.578H386.468V214.35H402.24V198.578Z" fill="#263238"/>
<path d="M363.396 214.236V186.208C363.216 183.636 364.007 181.091 365.613 179.073C366.574 178.012 367.757 177.177 369.078 176.626C370.4 176.076 371.826 175.824 373.257 175.888H402.711C402.945 175.888 403.168 175.796 403.333 175.631C403.498 175.466 403.59 175.243 403.59 175.009C403.59 174.776 403.498 174.553 403.333 174.388C403.168 174.223 402.945 174.13 402.711 174.13H373.613C371.149 174.007 368.704 174.623 366.594 175.901C365.076 176.911 363.83 178.278 362.964 179.882C362.098 181.485 361.638 183.277 361.625 185.099C361.548 189.711 361.625 194.336 361.625 198.935V214.223C361.651 214.44 361.755 214.639 361.919 214.784C362.082 214.929 362.292 215.008 362.51 215.008C362.728 215.008 362.939 214.929 363.102 214.784C363.265 214.639 363.37 214.44 363.396 214.223V214.236Z" fill="#023047"/>
<path d="M400.163 349.93H372.135C369.564 350.103 367.021 349.312 365.001 347.713C363.941 346.751 363.107 345.567 362.556 344.246C362.006 342.925 361.753 341.499 361.816 340.069V310.576C361.816 310.343 361.723 310.119 361.559 309.954C361.394 309.789 361.17 309.697 360.937 309.697C360.704 309.697 360.48 309.789 360.315 309.954C360.15 310.119 360.058 310.343 360.058 310.576V339.712C359.936 342.176 360.552 344.621 361.829 346.732C362.839 348.248 364.206 349.493 365.81 350.357C367.414 351.221 369.205 351.678 371.027 351.688C375.639 351.764 380.251 351.688 384.863 351.688H400.151C400.384 351.688 400.607 351.595 400.772 351.43C400.937 351.265 401.03 351.042 401.03 350.809C401.03 350.575 400.937 350.352 400.772 350.187C400.607 350.022 400.384 349.93 400.151 349.93H400.163Z" fill="#023047"/>
<path d="M535.004 310.295V338.323C535.183 340.895 534.392 343.441 532.787 345.458C531.826 346.519 530.643 347.356 529.321 347.906C528 348.457 526.573 348.708 525.143 348.643H495.65C495.417 348.643 495.193 348.735 495.028 348.9C494.863 349.065 494.771 349.289 494.771 349.522C494.771 349.755 494.863 349.979 495.028 350.143C495.193 350.308 495.417 350.401 495.65 350.401H524.786C527.25 350.525 529.695 349.908 531.806 348.63C533.322 347.62 534.567 346.253 535.431 344.649C536.295 343.045 536.752 341.254 536.762 339.432C536.851 334.82 536.762 330.208 536.762 325.596V310.308C536.762 310.075 536.669 309.851 536.504 309.687C536.339 309.522 536.116 309.429 535.883 309.429C535.649 309.429 535.426 309.522 535.261 309.687C535.096 309.851 535.004 310.075 535.004 310.308V310.295Z" fill="#023047"/>
<path d="M496.159 175.901H524.187C526.761 175.725 529.306 176.521 531.322 178.131C532.386 179.089 533.224 180.272 533.775 181.594C534.326 182.916 534.576 184.344 534.507 185.775V215.306C534.507 215.539 534.599 215.763 534.764 215.928C534.929 216.092 535.153 216.185 535.386 216.185C535.619 216.185 535.842 216.092 536.007 215.928C536.172 215.763 536.265 215.539 536.265 215.306V186.131C536.389 183.663 535.772 181.214 534.494 179.099C533.484 177.583 532.117 176.338 530.513 175.474C528.909 174.609 527.118 174.153 525.296 174.143C520.684 174.067 516.072 174.143 511.46 174.143H496.172C495.939 174.143 495.715 174.236 495.55 174.401C495.386 174.565 495.293 174.789 495.293 175.022C495.293 175.255 495.386 175.479 495.55 175.644C495.715 175.809 495.939 175.901 496.172 175.901H496.159Z" fill="#023047"/>
</svg>
